STARTFONT 2.1
FONT -Monotype-Century Gothic-Regular-I-Normal--50-360-100-100-P-267-iso8859-2
SIZE 36 100 100
FONTBOUNDINGBOX 69 59 -11 -11

STARTPROPERTIES 24
FOUNDRY "Monotype"
FAMILY_NAME "Century Gothic"
WEIGHT_NAME "Regular"
SLANT "I"
SETWIDTH_NAME "Normal"
ADD_STYLE_NAME ""
PIXEL_SIZE 50
POINT_SIZE 360
RESOLUTION_X 100
RESOLUTION_Y 100
SPACING "P"
AVERAGE_WIDTH 267
CHARSET_REGISTRY "iso8859"
CHARSET_ENCODING "2"
FACE_NAME "Century Gothic Italic ISO Latin2"
_DEC_DEVICE_FONTNAMES "PS=centurygothic-it-lat2"
COPYRIGHT "Copyright (c) 1994 Monotype Typography Ltd."
CAP_HEIGHT 44
X_HEIGHT 32
WEIGHT 10
QUAD_WIDTH 29
DEFAULT_CHAR 160
FONT_DESCENT 13
FONT_ASCENT 49
ENDPROPERTIES

CHARS 191

STARTCHAR space
ENCODING 32
SWIDTH 277 0
DWIDTH 14 0
BBX 0 0 0 0
BITMAP
ENDCHAR

STARTCHAR exclam
ENCODING 33
SWIDTH 295 0
DWIDTH 15 0
BBX 12 38 1 -1
BITMAP
01C0
01C0
03C0
03C0
0380
0380
0380
0380
0380
0380
0780
0780
0700
0700
0700
0700
0700
0F00
0F00
0F00
0E00
0E00
0E00
0E00
0E00
1E00
1E00
1E00
0000
0000
0000
0000
3C00
7E00
7E00
7E00
7E00
3C00
ENDCHAR

STARTCHAR quotedbl
ENCODING 34
SWIDTH 309 0
DWIDTH 15 0
BBX 16 11 1 26
BITMAP
381E
381E
381E
381C
381C
381C
381C
381C
381C
381C
380C
ENDCHAR

STARTCHAR numbersign
ENCODING 35
SWIDTH 720 0
DWIDTH 36 0
BBX 30 37 3 0
BITMAP
001C0380
001C0300
001C0300
00180300
00180700
00380700
00380700
00380700
00380600
00300600
00300600
1FFFFFF8
1FFFFFF8
1FFFFFF8
00700E00
00700C00
00600C00
00601C00
00E01C00
00E01C00
00E01C00
00E01C00
3FFFFFE0
3FFFFFE0
3FFFFFE0
01C03800
01C03800
01C03800
01C03800
01C03000
01803000
01807000
03807000
03807000
03807000
03807000
03006000
ENDCHAR

STARTCHAR dollar
ENCODING 36
SWIDTH 554 0
DWIDTH 28 0
BBX 28 48 -1 -9
BITMAP
0000F000
0000E000
0000E000
0007F800
003FFE00
007FFF00
00FDFF80
01F1E7C0
01E1C3C0
03C1C100
0381C000
0381C000
0381C000
03C3C000
03C3C000
01E38000
01F38000
00FF8000
007F8000
001FC000
000FE000
0007F800
0007FC00
00077E00
00071F00
00070F00
00070780
000F0780
000F0380
000E0380
000E0380
180E0380
780E0780
3C0E0700
3E1E0F00
1F1E3E00
0FFCFC00
07FFF800
03FFF000
007FC000
001C0000
003C0000
00380000
00380000
00380000
00380000
00380000
00780000
ENDCHAR

STARTCHAR percent
ENCODING 37
SWIDTH 775 0
DWIDTH 39 0
BBX 38 39 1 -2
BITMAP
007C0001E0
01FFE03FE0
03FFFFFFC0
0783FFF380
0E01C00700
1C00E00E00
1C00E00E00
3800E01C00
3800E03800
3800E07000
3800E0E000
3801C0E000
3C01C1C000
1C03838000
1E0F870000
0FFF0E0000
07FC0C0000
01F01C0000
0000380000
0000700000
0000E00000
0000C03E00
0001C0FF80
000383FFC0
00070781E0
000E0700E0
000C0E0070
001C0E0070
00381C0070
00701C0070
00E01C0070
00C01C00F0
01C01C00E0
03800E01E0
07000F03C0
0E0007FF80
1C0003FE00
1C0000F800
3800000000
ENDCHAR

STARTCHAR ampersand
ENCODING 38
SWIDTH 757 0
DWIDTH 38 0
BBX 34 35 2 -1
BITMAP
0007F00000
001FFC0000
003FFE0000
007C3E0000
00780F0000
00F00F0000
00F00F0000
00F00F0000
00F01E0000
00783E0000
00787C0000
003CF80000
003DF00000
001FE00000
001FC00000
003F800000
00FF800000
01FBC00000
03F3E00000
07C1F00000
0F80F80000
1F007C0C00
3E003C1E00
3C003E7E00
38001FFC00
78000FF800
780007E000
78000FE000
78003FF000
3C00FEF800
3C01FC7800
1F0FF03C00
1FFFE03E00
0FFF801F00
03FC000000
ENDCHAR

STARTCHAR quoteright
ENCODING 39
SWIDTH 351 0
DWIDTH 18 0
BBX 8 14 6 23
BITMAP
3E
3C
3C
3C
3C
3C
7C
1C
18
18
38
30
70
20
ENDCHAR

STARTCHAR parenleft
ENCODING 40
SWIDTH 369 0
DWIDTH 18 0
BBX 16 48 3 -11
BITMAP
003C
0038
0078
0070
00F0
00E0
01E0
01C0
03C0
03C0
0380
0780
0700
0700
0F00
0F00
0E00
1E00
1E00
1E00
1C00
1C00
3C00
3C00
3C00
3800
3800
3800
3800
3800
7800
7800
7800
7800
7800
7800
7800
7800
7800
7800
7800
3800
3800
3C00
3C00
3C00
3C00
1C00
ENDCHAR

STARTCHAR parenright
ENCODING 41
SWIDTH 369 0
DWIDTH 18 0
BBX 16 48 -3 -11
BITMAP
003C
003C
003C
003C
001C
001E
001E
001E
001E
001E
001E
001E
001E
001E
001E
001E
001E
001E
001E
001E
001C
001C
001C
003C
003C
003C
003C
0038
0078
0078
0078
0070
0070
00F0
00F0
00E0
01E0
01E0
03C0
03C0
0380
0780
0780
0F00
0F00
1E00
1C00
3C00
ENDCHAR

STARTCHAR asterisk
ENCODING 42
SWIDTH 425 0
DWIDTH 21 0
BBX 20 17 1 20
BITMAP
007000
007000
007000
107040
1C71C0
3E63E0
0FEF80
03FE00
00F800
01FC00
07AF00
3F67C0
3C73C0
1870C0
007000
007000
007000
ENDCHAR

STARTCHAR plus
ENCODING 43
SWIDTH 606 0
DWIDTH 30 0
BBX 27 25 2 5
BITMAP
000E0000
000E0000
000E0000
000E0000
000E0000
000E0000
000E0000
000E0000
000E0000
000E0000
000E0000
7FFFFFC0
7FFFFFC0
7FFFFFC0
000E0000
000E0000
000E0000
000E0000
000E0000
000E0000
000E0000
000E0000
000E0000
000E0000
000E0000
ENDCHAR

STARTCHAR comma
ENCODING 44
SWIDTH 277 0
DWIDTH 14 0
BBX 11 10 -2 -4
BITMAP
0380
0780
0780
0F00
0E00
1E00
1C00
3800
3000
3000
ENDCHAR

STARTCHAR minus
ENCODING 45
SWIDTH 606 0
DWIDTH 30 0
BBX 28 3 1 16
BITMAP
3FFFFFE0
3FFFFFE0
3FFFFFE0
ENDCHAR

STARTCHAR period
ENCODING 46
SWIDTH 277 0
DWIDTH 14 0
BBX 9 6 0 -1
BITMAP
3C00
7E00
7E00
7E00
7E00
3C00
ENDCHAR

STARTCHAR slash
ENCODING 47
SWIDTH 437 0
DWIDTH 22 0
BBX 22 42 0 -5
BITMAP
0000F0
0000F0
0000F0
0001E0
0001E0
0001C0
0003C0
0003C0
000380
000780
000780
000700
000F00
000F00
000E00
001E00
001E00
003C00
003C00
003800
007800
007800
007000
00F000
00F000
00E000
01E000
01E000
01C000
03C000
03C000
038000
078000
078000
0F0000
0F0000
0E0000
1E0000
1E0000
1C0000
3C0000
3C0000
ENDCHAR

STARTCHAR zero
ENCODING 48
SWIDTH 554 0
DWIDTH 28 0
BBX 26 38 0 -1
BITMAP
000FE000
003FF000
007FF800
01F87C00
01E03E00
03C01E00
07800F00
07800F00
0F000700
0F000780
1E000780
1E000780
1E000780
1C000780
3C000780
3C000780
3C000780
38000780
38000780
78000700
78000700
78000F00
78000F00
78000F00
78000E00
78001E00
78001E00
78001C00
38003C00
38003C00
3C007800
3C00F800
1E01F000
1F03E000
0F8FC000
07FF8000
03FF0000
01FC0000
ENDCHAR

STARTCHAR one
ENCODING 49
SWIDTH 554 0
DWIDTH 28 0
BBX 12 36 8 0
BITMAP
1FC0
3FC0
3FC0
01C0
03C0
03C0
03C0
03C0
0380
0380
0380
0380
0780
0780
0780
0700
0700
0700
0700
0F00
0F00
0F00
0F00
0E00
0E00
0E00
0E00
1E00
1E00
1E00
1C00
1C00
1C00
1C00
3C00
3C00
ENDCHAR

STARTCHAR two
ENCODING 50
SWIDTH 554 0
DWIDTH 28 0
BBX 28 37 -3 0
BITMAP
0007F800
001FFE00
003FFF00
007E1F80
00F807C0
00F003C0
01E001E0
01E001E0
03C001E0
03C001E0
03C001E0
03C001E0
000001C0
000003C0
000007C0
00000780
00000F00
00001F00
00003E00
00003C00
00007800
0000F800
0001F000
0003E000
0007C000
000F8000
001F0000
001E0000
003C0000
007C0000
00F80000
01F00000
03E00000
07C00000
0FFFFF80
1FFFFF80
1FFFFF80
ENDCHAR

STARTCHAR three
ENCODING 51
SWIDTH 554 0
DWIDTH 28 0
BBX 27 38 -2 -1
BITMAP
0007F000
001FFC00
003FFE00
007C3F00
00F00F80
01E00780
01E003C0
01C003C0
000003C0
000003C0
000003C0
000003C0
00000780
00000F80
00001F00
0000FE00
000FFC00
000FF000
000FF800
0000FC00
00003E00
00001F00
00000F00
00000780
00000780
00000780
00000780
00000780
38000780
3C000F00
3C000F00
1E001F00
1E003E00
0F807C00
0FE3F800
07FFF000
01FFE000
007F8000
ENDCHAR

STARTCHAR four
ENCODING 52
SWIDTH 554 0
DWIDTH 28 0
BBX 28 37 -3 0
BITMAP
00000080
00000180
00000300
00000700
00000700
00000F00
00001F00
00003F00
00003F00
00007F00
0000FE00
0001EE00
0001CE00
00038E00
00078E00
000F1E00
000E1E00
001C1C00
003C1C00
00781C00
00F01C00
00F01C00
01E03C00
03C03C00
07803C00
07803800
0FFFFFC0
1FFFFFC0
3FFFFFC0
00003800
00007800
00007800
00007800
00007000
00007000
00007000
00007000
ENDCHAR

STARTCHAR five
ENCODING 53
SWIDTH 554 0
DWIDTH 28 0
BBX 29 37 -2 -1
BITMAP
0007FFE0
000FFFE0
000FFFE0
000E0000
001E0000
001E0000
001C0000
003C0000
003C0000
00380000
00380000
00780000
007FC000
007FF000
00FFF800
00E0FC00
00003E00
00001E00
00000F00
00000F00
00000780
00000780
00000780
00000780
00000780
00000780
00000780
00000700
18000F00
3C000F00
3C001E00
1E003E00
1F007C00
0FE3F800
07FFF000
03FFE000
00FF0000
ENDCHAR

STARTCHAR six
ENCODING 54
SWIDTH 554 0
DWIDTH 28 0
BBX 26 38 -1 -1
BITMAP
00002000
00007000
0000F000
0001E000
0003C000
0007C000
00078000
000F0000
001E0000
003C0000
00780000
00F80000
01F00000
01FF8000
03FFE000
07FFF800
0FE0FC00
0F803E00
1F001E00
1E000F00
3C000F00
3C000700
38000780
78000780
78000780
78000780
78000780
78000780
38000700
3C000F00
3C000F00
1E001E00
1F003E00
0F80FC00
07FFF800
03FFF000
00FFC000
003E0000
ENDCHAR

STARTCHAR seven
ENCODING 55
SWIDTH 554 0
DWIDTH 28 0
BBX 30 37 -1 -1
BITMAP
07FFFFF0
07FFFFE0
07FFFFC0
000003C0
00000780
00000700
00000F00
00001E00
00001E00
00003C00
00007800
00007800
0000F000
0000E000
0001E000
0003C000
0003C000
00078000
000F0000
000F0000
001E0000
001E0000
003C0000
00780000
00780000
00F00000
01E00000
01E00000
03C00000
03C00000
07800000
0F000000
0F000000
1E000000
3C000000
3C000000
08000000
ENDCHAR

STARTCHAR eight
ENCODING 56
SWIDTH 554 0
DWIDTH 28 0
BBX 27 38 -1 -1
BITMAP
0007F000
003FFC00
007FFE00
00FC1F00
01F00F80
03E00780
03C003C0
038003C0
078003C0
078003C0
078003C0
07800780
03C00780
03C00F00
01F03E00
00FFFC00
007FF800
00FFF000
03FFFC00
07E03E00
0F801F00
1F000F00
1E000780
3C000780
3C000380
78000380
78000380
78000380
78000780
78000780
38000700
3C000F00
3E001E00
1F007E00
0FC1FC00
07FFF800
03FFE000
00FF8000
ENDCHAR

STARTCHAR nine
ENCODING 57
SWIDTH 554 0
DWIDTH 28 0
BBX 26 38 1 -1
BITMAP
001F0000
00FFE000
03FFF000
07FFFC00
0FC07C00
1F003E00
1E001F00
3E000F00
3C000F00
3C000780
78000780
78000780
78000780
78000780
78000780
78000700
38000F00
3C000F00
3E001E00
1E001E00
0F007C00
0FC1FC00
07FFF800
01FFF000
007FE000
0003E000
0007C000
00078000
000F0000
001E0000
003C0000
007C0000
00F80000
00F00000
01E00000
03C00000
03800000
01000000
ENDCHAR

STARTCHAR colon
ENCODING 58
SWIDTH 277 0
DWIDTH 14 0
BBX 12 29 0 -1
BITMAP
0780
0FC0
0FC0
0FC0
0FC0
0780
0000
0000
0000
0000
0000
0000
0000
0000
0000
0000
0000
0000
0000
0000
0000
0000
0000
3C00
7E00
7E00
7E00
7E00
3C00
ENDCHAR

STARTCHAR semicolon
ENCODING 59
SWIDTH 277 0
DWIDTH 14 0
BBX 15 31 -3 -3
BITMAP
00F0
01F8
01F8
01F8
01F8
00F0
0000
0000
0000
0000
0000
0000
0000
0000
0000
0000
0000
0000
0000
0000
0000
0180
03C0
0380
0780
0F00
0E00
1E00
1C00
3800
3800
ENDCHAR

STARTCHAR less
ENCODING 60
SWIDTH 606 0
DWIDTH 30 0
BBX 28 26 1 5
BITMAP
00000020
000001E0
000007E0
00001FE0
00007F80
0001FE00
000FF000
003FC000
00FF0000
03FC0000
0FF00000
3FC00000
3F000000
3E000000
3F800000
1FF00000
03FC0000
00FF0000
003FC000
000FF000
0003FC00
00007F80
00001FE0
000007E0
000001E0
00000060
ENDCHAR

STARTCHAR equal
ENCODING 61
SWIDTH 606 0
DWIDTH 30 0
BBX 28 14 1 11
BITMAP
3FFFFFE0
3FFFFFE0
3FFFFFE0
00000000
00000000
00000000
00000000
00000000
00000000
00000000
00000000
3FFFFFE0
3FFFFFE0
3FFFFFE0
ENDCHAR

STARTCHAR greater
ENCODING 62
SWIDTH 606 0
DWIDTH 30 0
BBX 28 26 1 5
BITMAP
20000000
38000000
3E000000
3F800000
0FF00000
03FC0000
00FF0000
003FC000
000FF000
0003FE00
0000FF80
00001FE0
000007E0
000007E0
00001FE0
00007F80
0001FE00
0007F000
003FC000
00FF0000
03FC0000
0FF00000
3FC00000
3E000000
38000000
20000000
ENDCHAR

STARTCHAR question
ENCODING 63
SWIDTH 591 0
DWIDTH 30 0
BBX 24 38 4 -1
BITMAP
00FF80
03FFE0
07FFF0
0FC1F8
1E007C
1C003C
3C001C
38001C
38001C
78001C
70003C
000078
0001F8
000FF0
003FC0
01FF00
07FC00
0FE000
1F8000
1E0000
3C00E0
3800E0
3801E0
3801C0
3C03C0
1E0F80
1FFF80
0FFE00
03F800
000000
000000
000000
01C000
03E000
07E000
07E000
03E000
01C000
ENDCHAR

STARTCHAR at
ENCODING 64
SWIDTH 867 0
DWIDTH 43 0
BBX 39 38 2 -1
BITMAP
0001FF8000
000FFFF000
003F00FC00
0078000F00
00E0000780
03800001C0
03000000E0
0600000070
0C00000030
0C007C3838
1803FF3818
1807FFB818
300F83F80C
301E01F00C
201C00F00C
603C00F00C
603800700C
607800700C
607000600C
607000E00C
607000E018
607000E018
607800E030
307801E030
307801C060
303C03C0C0
183F07C180
181FFFC700
0C0FF9FC00
0E01E1F000
0600000070
03000000E0
03C00001C0
00E0000780
0078001F00
001F00FC00
000FFFF000
0000FFC000
ENDCHAR

STARTCHAR A
ENCODING 65
SWIDTH 740 0
DWIDTH 37 0
BBX 36 36 -2 0
BITMAP
0000020000
0000060000
0000070000
00000F0000
00001F0000
00001F8000
00003F8000
00003F8000
00007BC000
000073C000
0000F1C000
0001E1E000
0001E1E000
0003C0E000
0003C0F000
000780F000
0007007000
000F007800
001E007800
001E003800
003C003C00
003FFFFC00
007FFFFC00
007FFFFE00
00F0001E00
01E0000E00
01E0000F00
03C0000F00
03C0000700
0780000780
0700000780
0F00000380
1E000003C0
1E000003C0
3C000001C0
3C000001E0
ENDCHAR

STARTCHAR B
ENCODING 66
SWIDTH 574 0
DWIDTH 29 0
BBX 28 36 -1 0
BITMAP
01FFF000
01FFFC00
03FFFE00
03C07F00
03C00F80
03800780
038003C0
038003C0
038003C0
078003C0
078003C0
07800380
07800780
07000F00
07001F00
0701FE00
07FFFC00
0FFFF800
0FFFFE00
0F00FF00
0F000F80
0E0007C0
0E0003C0
0E0001E0
1E0001E0
1E0001E0
1E0001E0
1E0001E0
1E0001E0
1C0003C0
1C0003C0
1C000F80
3C007F80
3FFFFF00
3FFFFC00
3FFFF000
ENDCHAR

STARTCHAR C
ENCODING 67
SWIDTH 813 0
DWIDTH 41 0
BBX 39 38 1 -1
BITMAP
00007FF800
0003FFFE00
000FFFFF80
003FF03FE0
007F0007F0
00FC0001FC
01F0000078
03E0000030
07C0000010
0780000000
0F00000000
1E00000000
1E00000000
1C00000000
3C00000000
3C00000000
3800000000
7800000000
7800000000
7800000000
7800000000
7800000000
7800000000
7800000000
3800000000
3C00000000
3C00000000
3C00000000
1E00000000
1F00000000
0F80000000
07C0000180
07E0000780
03F8001FC0
00FF01FF00
007FFFFE00
001FFFF000
0003FFC000
ENDCHAR

STARTCHAR D
ENCODING 68
SWIDTH 744 0
DWIDTH 37 0
BBX 35 36 0 0
BITMAP
03FFFC0000
03FFFF8000
03FFFFE000
03801FF000
038003F800
078000FC00
0780003E00
0780001E00
0780000F00
0700000F00
0700000780
0700000780
0700000380
0F000003C0
0F000003C0
0F000003C0
0F000003C0
0E000003C0
0E000003C0
0E000003C0
1E000003C0
1E00000380
1E00000780
1E00000780
1C00000780
1C00000F00
1C00000F00
1C00001E00
3C00003E00
3C00007C00
3C0000F800
3C0007F000
38007FE000
3FFFFF8000
3FFFFF0000
3FFFF80000
ENDCHAR

STARTCHAR E
ENCODING 69
SWIDTH 536 0
DWIDTH 27 0
BBX 27 36 0 0
BITMAP
03FFFFC0
03FFFFC0
03FFFF80
03800000
07800000
07800000
07800000
07800000
07000000
07000000
07000000
0F000000
0F000000
0F000000
0F000000
0F000000
0FFFFF00
0FFFFE00
0FFFFE00
1E000000
1E000000
1E000000
1E000000
1E000000
1C000000
1C000000
1C000000
3C000000
3C000000
3C000000
3C000000
38000000
38000000
3FFFF800
7FFFF800
7FFFF800
ENDCHAR

STARTCHAR F
ENCODING 70
SWIDTH 485 0
DWIDTH 24 0
BBX 25 36 0 0
BITMAP
03FFFE00
03FFFE00
03FFFE00
03800000
07800000
07800000
07800000
07800000
07000000
07000000
07000000
0F000000
0F000000
0F000000
0F000000
0FFFF800
0FFFF800
0FFFF800
0E000000
1E000000
1E000000
1E000000
1E000000
1C000000
1C000000
1C000000
3C000000
3C000000
3C000000
3C000000
38000000
38000000
38000000
38000000
78000000
78000000
ENDCHAR

STARTCHAR G
ENCODING 71
SWIDTH 872 0
DWIDTH 44 0
BBX 41 38 1 -1
BITMAP
0000FFE00000
0003FFFC0000
000FFFFF0000
003FE0FF8000
007E000FE000
00F80003F000
01F00001F800
03E00000F800
07C000007C00
0F8000003800
0F0000001000
1E0000000000
1E0000000000
3C0000000000
3C0000000000
3C0000000000
380000000000
780000000000
780000000000
780000000000
780003FFFE00
780003FFFE00
780003FFFE00
780000001E00
380000001C00
3C0000003C00
3C0000003C00
1E0000007800
1E000000F800
0F000000F000
0F800001F000
07C00003E000
03E0000FC000
01F8003F8000
00FF01FF0000
007FFFFC0000
001FFFF00000
0003FF800000
ENDCHAR

STARTCHAR H
ENCODING 72
SWIDTH 683 0
DWIDTH 34 0
BBX 33 36 0 0
BITMAP
0380000E00
0380000E00
0380000E00
0380001E00
0780001E00
0780001E00
0780001E00
0780001C00
0700001C00
0700001C00
0700001C00
0F00003C00
0F00003C00
0F00003C00
0F00003C00
0FFFFFF800
0FFFFFF800
0FFFFFF800
0E00003800
1E00007800
1E00007800
1E00007800
1E00007000
1C00007000
1C00007000
1C00007000
3C00007000
3C0000F000
3C0000F000
3C0000F000
380000E000
380000E000
380000E000
380000E000
780001E000
780001E000
ENDCHAR

STARTCHAR I
ENCODING 73
SWIDTH 226 0
DWIDTH 11 0
BBX 12 36 -1 0
BITMAP
01C0
01C0
01C0
03C0
03C0
03C0
03C0
0380
0380
0380
0780
0780
0780
0780
0700
0700
0700
0F00
0F00
0F00
0F00
0F00
0E00
0E00
0E00
1E00
1E00
1E00
1E00
1C00
1C00
1C00
3C00
3C00
3C00
3C00
ENDCHAR

STARTCHAR J
ENCODING 74
SWIDTH 482 0
DWIDTH 24 0
BBX 24 37 -2 -1
BITMAP
00001C
00003C
00003C
00003C
00003C
000038
000038
000038
000038
000078
000078
000078
000078
000070
000070
000070
000070
0000F0
0000F0
0000F0
0000E0
0000E0
0000E0
0000E0
0000E0
0001E0
0001E0
0001E0
0001C0
0001C0
0003C0
1803C0
3C0780
3F0F80
1FFF00
07FE00
01FC00
ENDCHAR

STARTCHAR K
ENCODING 75
SWIDTH 591 0
DWIDTH 30 0
BBX 31 36 0 0
BITMAP
038000F8
038001F0
038003E0
03800FC0
07801F00
07803E00
07807C00
0780F800
0701F000
0707E000
070F8000
0F1F0000
0F3E0000
0F7C0000
0FF80000
0FF00000
0FE00000
0FE00000
0FF00000
1EF00000
1E780000
1E3C0000
1E3E0000
1C1F0000
1C0F8000
1C07C000
3C03E000
3C01E000
3C00F000
3C007800
38003C00
38003E00
38001F00
38000F80
780007C0
780003C0
ENDCHAR

STARTCHAR L
ENCODING 76
SWIDTH 462 0
DWIDTH 23 0
BBX 22 36 0 0
BITMAP
03C000
03C000
038000
038000
038000
078000
078000
078000
078000
070000
070000
070000
070000
0F0000
0F0000
0F0000
0F0000
0E0000
0E0000
0E0000
1E0000
1E0000
1E0000
1E0000
1C0000
1C0000
1C0000
1C0000
3C0000
3C0000
3C0000
3C0000
380000
3FFFF8
3FFFF8
3FFFF8
ENDCHAR

STARTCHAR M
ENCODING 77
SWIDTH 919 0
DWIDTH 46 0
BBX 43 36 -1 0
BITMAP
001000000080
001800000080
001800000180
003800000180
003C00000380
003C00000780
003C00000780
007E00000F80
007E00001F80
007E00001F80
00FF00003F80
00FF00003F80
00E780007B80
00E78000F380
01E38000F380
01E3C001E380
01C3C003C380
03C1C003C380
03C1E0078380
0381E0078380
0380E00F0380
0780F01E0380
0780F01E0380
0700703C0380
0F0078780380
0F0038780380
0E003CF00380
1E003CF00380
1E001DE00380
1E001FC00380
1C001FC00380
3C000F800380
3C000F000380
38000F000380
780006000380
780006000380
ENDCHAR

STARTCHAR N
ENCODING 78
SWIDTH 740 0
DWIDTH 37 0
BBX 36 36 0 0
BITMAP
02000001C0
03000001C0
03800001C0
03800003C0
07C00003C0
07E00003C0
07F00003C0
07F0000380
07F8000380
073C000380
073E000380
071E000780
0F0F000780
0F07800780
0F07800700
0F03C00700
0E01E00700
0E01F00700
0E00F00F00
1E00780F00
1E003C0F00
1E003E0E00
1E001E0E00
1C000F0E00
1C000F8E00
1C00079E00
1C0003DE00
3C0001FE00
3C0001FE00
3C0000FC00
3C00007C00
3800003C00
3800003C00
3800001C00
7800000C00
7800000C00
ENDCHAR

STARTCHAR O
ENCODING 79
SWIDTH 869 0
DWIDTH 43 0
BBX 41 38 0 -1
BITMAP
00007FF00000
0003FFFE0000
000FFFFF0000
003FF03FC000
007F0007E000
00FC0001F000
01F00000F800
03E000007800
07C000003C00
078000003C00
0F0000001E00
1F0000001E00
1E0000000E00
1C0000000F00
3C0000000F00
3C0000000F00
380000000F00
380000000F00
780000000F00
780000000F00
780000000F00
780000000E00
780000001E00
780000001E00
780000001E00
380000003C00
3C0000003C00
3C0000007800
1E000000F800
1E000001F000
0F000003E000
0F800007C000
07C0001F8000
03F0007F0000
01FE07FE0000
00FFFFF80000
003FFFE00000
0007FF000000
ENDCHAR

STARTCHAR P
ENCODING 80
SWIDTH 592 0
DWIDTH 30 0
BBX 29 36 0 0
BITMAP
03FFFE00
03FFFF80
03FFFFC0
03C00FC0
038003E0
038001E0
038000F0
078000F0
078000F0
078000F0
078000F0
078000E0
070001E0
070003E0
0F0007C0
0F007F80
0FFFFF00
0FFFFE00
0FFFF800
0E000000
0E000000
0E000000
1E000000
1E000000
1E000000
1E000000
1E000000
1C000000
1C000000
3C000000
3C000000
3C000000
3C000000
3C000000
38000000
38000000
ENDCHAR

STARTCHAR Q
ENCODING 81
SWIDTH 871 0
DWIDTH 44 0
BBX 41 39 1 -2
BITMAP
00007FF00000
0003FFFE0000
000FFFFF0000
003FF03FC000
007F0007E000
00FC0001F000
01F00000F800
03E000007800
07C000003C00
078000003C00
0F0000001E00
1F0000001E00
1E0000000E00
1C0000000F00
3C0000000F00
3C0000000F00
380000000F00
380000000F00
780000000F00
780000000F00
780000000F00
780000000E00
780000001E00
780000001E00
780000001E00
380001F03C00
3C0000F03C00
3C0000787800
1E00003CF800
1E00001FF000
0F00000FE000
0F80000FC000
07C0001FC000
03F0007FE000
01FE07FFF000
00FFFFF8F800
003FFFE07C00
0007FF003E00
000000001F00
ENDCHAR

STARTCHAR R
ENCODING 82
SWIDTH 607 0
DWIDTH 30 0
BBX 28 36 1 0
BITMAP
03FFFC00
03FFFF00
03FFFF80
03801F80
038007C0
038003C0
078001E0
078001E0
078001E0
078001E0
070001E0
070001C0
070003C0
0F0007C0
0F000F80
0F007F00
0FFFFE00
0FFFFC00
0FFFF000
0E3C0000
0E1E0000
1E0F0000
1E0F0000
1E078000
1E03C000
1C03C000
1C01E000
1C00F000
3C00F000
3C007800
3C007800
3C003C00
38001E00
38001E00
38000F00
78000780
ENDCHAR

STARTCHAR S
ENCODING 83
SWIDTH 498 0
DWIDTH 25 0
BBX 25 38 -1 -1
BITMAP
001FC000
007FE000
00FFF800
00F8F800
01E07C00
01C03C00
03C01E00
03C00E00
03C00000
03C00000
03C00000
01E00000
01E00000
00F00000
00F80000
007C0000
003E0000
001E0000
000F0000
00078000
0003C000
0003E000
0001F000
0000F000
0000F000
00007800
00007800
00007800
08007800
78007800
78007000
3C00F000
3C00F000
1E01E000
1F87C000
0FFF8000
07FF0000
01FC0000
ENDCHAR

STARTCHAR T
ENCODING 84
SWIDTH 426 0
DWIDTH 21 0
BBX 25 36 0 0
BITMAP
3FFFFE00
3FFFFE00
3FFFFE00
003C0000
00380000
00380000
00380000
00380000
00780000
00780000
00780000
00780000
00700000
00700000
00700000
00F00000
00F00000
00F00000
00F00000
00F00000
00E00000
00E00000
00E00000
01E00000
01E00000
01E00000
01E00000
01C00000
01C00000
01C00000
01C00000
03C00000
03C00000
03C00000
03C00000
03800000
ENDCHAR

STARTCHAR U
ENCODING 85
SWIDTH 655 0
DWIDTH 33 0
BBX 31 37 1 -1
BITMAP
0F000038
0F000078
0F000078
0F000078
0E000078
0E000070
0E000070
0E000070
1E000070
1E0000F0
1E0000F0
1E0000F0
1C0000F0
1C0000E0
1C0000E0
1C0000E0
3C0000E0
3C0001E0
3C0001E0
380001E0
380001C0
380001C0
380001C0
780001C0
780003C0
780003C0
78000380
78000780
78000780
78000700
3C000F00
3C001E00
1F007E00
1FC1FC00
0FFFF800
07FFE000
00FF8000
ENDCHAR

STARTCHAR V
ENCODING 86
SWIDTH 702 0
DWIDTH 35 0
BBX 36 36 2 0
BITMAP
78000003C0
7800000780
3800000780
3C00000F00
3C00000F00
1C00001E00
1E00003C00
1E00003C00
0E00007800
0F00007800
0F0000F000
070000E000
078001E000
078003C000
038003C000
03C0078000
03C0078000
01C00F0000
01C01E0000
01E01E0000
01E03C0000
00E03C0000
00F0780000
00F0700000
0070F00000
0079E00000
0079E00000
003BC00000
003FC00000
003F800000
001F000000
001F000000
001E000000
000E000000
000C000000
0008000000
ENDCHAR

STARTCHAR W
ENCODING 87
SWIDTH 960 0
DWIDTH 48 0
BBX 48 36 2 0
BITMAP
78000100001E
78000180003C
38000380003C
380003800078
380007800078
3C0007800070
3C000FC000F0
3C000FC000E0
1C001FC001E0
1C003DC001C0
1E003DE003C0
1E0079E00380
1E0078E00780
0E00F0E00700
0E00F0F00F00
0E01E0F00E00
0F01E0F01E00
0F03C0701E00
0703C0703C00
070780783C00
070780787800
078F00387800
078F0038F000
079E003CF000
039C003DE000
03BC001DE000
03F8001DC000
03F8001FC000
03F0001F8000
01F0000F8000
01E0000F0000
01E0000F0000
01C0000E0000
01C0000E0000
018000040000
008000040000
ENDCHAR

STARTCHAR X
ENCODING 88
SWIDTH 609 0
DWIDTH 30 0
BBX 35 36 -3 0
BITMAP
0070000780
0078000F00
0038001E00
003C003E00
003C003C00
001E007800
001E00F000
000F01F000
000F01E000
000703C000
0007878000
00038F8000
0003CF0000
0001DE0000
0001FC0000
0001FC0000
0000F80000
0000F00000
0001F80000
0003F80000
0003FC0000
0007BC0000
000F1C0000
001F1E0000
001E0E0000
003C0F0000
00780F0000
00F8078000
00F0078000
01E003C000
03C003C000
07C001E000
078001E000
0F0000E000
1E0000F000
3E00007000
ENDCHAR

STARTCHAR Y
ENCODING 89
SWIDTH 592 0
DWIDTH 30 0
BBX 31 36 1 0
BITMAP
78000078
3C0000F8
3C0000F0
1E0001E0
1E0003C0
0E000780
0F000F80
07000F00
07801E00
03803C00
03C07800
03C0F800
01E0F000
01E1E000
00F3C000
00F7C000
007F8000
007F0000
003E0000
003C0000
003C0000
003C0000
003C0000
00380000
00380000
00380000
00380000
00780000
00780000
00780000
00700000
00700000
00700000
00700000
00F00000
00F00000
ENDCHAR

STARTCHAR Z
ENCODING 90
SWIDTH 480 0
DWIDTH 24 0
BBX 26 36 -1 0
BITMAP
03FFFF00
03FFFF00
03FFFE00
00001E00
00003C00
00003C00
00007800
00007800
0000F000
0000F000
0001E000
0001E000
0003C000
00038000
00078000
00070000
000F0000
001E0000
001E0000
003C0000
003C0000
00780000
00780000
00F00000
00F00000
01E00000
01C00000
03C00000
03800000
07800000
07000000
0F000000
1E000000
1FFFF800
3FFFF000
3FFFF000
ENDCHAR

STARTCHAR bracketleft
ENCODING 91
SWIDTH 351 0
DWIDTH 18 0
BBX 18 47 1 -10
BITMAP
00FF00
00FF00
00FF00
00E000
01E000
01E000
01E000
01C000
01C000
01C000
01C000
03C000
03C000
03C000
038000
038000
038000
038000
038000
078000
078000
070000
070000
070000
070000
070000
0F0000
0F0000
0F0000
0E0000
0E0000
0E0000
0E0000
1E0000
1E0000
1E0000
1C0000
1C0000
1C0000
1C0000
3C0000
3C0000
3C0000
380000
3FC000
3FC000
3FC000
ENDCHAR

STARTCHAR backslash
ENCODING 92
SWIDTH 605 0
DWIDTH 30 0
BBX 30 42 0 -5
BITMAP
3C000000
3C000000
1E000000
0E000000
0F000000
07000000
07800000
03C00000
03C00000
01E00000
01E00000
00F00000
00700000
00780000
00380000
003C0000
001E0000
001E0000
000F0000
000F0000
00078000
00038000
0003C000
0001C000
0001E000
0000F000
0000F000
00007800
00007800
00003C00
00001C00
00001E00
00000E00
00000F00
00000780
00000780
000003C0
000003C0
000001E0
000000E0
000000F0
00000070
ENDCHAR

STARTCHAR bracketright
ENCODING 93
SWIDTH 351 0
DWIDTH 18 0
BBX 18 47 -4 -10
BITMAP
00FF00
00FF00
00FF00
000700
000F00
000F00
000E00
000E00
000E00
000E00
000E00
001E00
001E00
001E00
001C00
001C00
001C00
001C00
003C00
003C00
003C00
003800
003800
003800
003800
007800
007800
007800
007000
007000
007000
007000
00F000
00F000
00F000
00F000
00E000
00E000
00E000
00E000
01E000
01E000
01E000
01C000
3FC000
3FC000
3FC000
ENDCHAR

STARTCHAR asciicircum
ENCODING 94
SWIDTH 672 0
DWIDTH 34 0
BBX 31 27 1 9
BITMAP
0003C000
0003C000
0007C000
0007E000
000EE000
000E7000
001E7000
001C7800
001C3800
00383C00
00381C00
00701E00
00700E00
00E00F00
00E00700
01C00700
01C00380
03800380
038001C0
078001C0
070000E0
070000E0
0E0000F0
0E000070
1C000078
1C000038
3800003C
ENDCHAR

STARTCHAR underscore
ENCODING 95
SWIDTH 500 0
DWIDTH 25 0
BBX 29 2 -2 -6
BITMAP
3FFFFFE0
3FFFFFE0
ENDCHAR

STARTCHAR quoteleft
ENCODING 96
SWIDTH 351 0
DWIDTH 18 0
BBX 8 14 6 23
BITMAP
04
0C
1C
18
18
38
30
3C
3C
3C
7C
7C
7C
78
ENDCHAR

STARTCHAR a
ENCODING 97
SWIDTH 683 0
DWIDTH 34 0
BBX 33 29 0 -1
BITMAP
0007F80000
001FFE0E00
007FFF8E00
00FC0FDE00
03F003DE00
03C001FE00
078000FE00
0F00007C00
0E00003C00
1E00003C00
1C00003C00
3C00003C00
3C00003C00
3800003C00
3800003800
3800003800
3800003800
3800003800
3C00007800
3C00007800
1C0000F800
1E0000F800
1E0001F000
0F0003F000
07C00FF000
07F03E7000
01FFFCF000
00FFF8F000
003FC00000
ENDCHAR

STARTCHAR b
ENCODING 98
SWIDTH 682 0
DWIDTH 34 0
BBX 33 38 0 -1
BITMAP
01C0000000
03C0000000
03C0000000
03C0000000
03C0000000
0380000000
0380000000
0380000000
0380000000
0781FE0000
078FFF8000
079FFFE000
073E07F000
07F800F800
07E0007800
07C0003C00
0F80003C00
0F80001E00
0F00001E00
0F00000E00
0E00000E00
0E00000E00
0E00000E00
0E00000E00
1E00000E00
1E00001E00
1E00001E00
1E00001C00
1E00003C00
1E00003800
1F00007800
1F8000F000
3FC001E000
3DE007C000
3CF81F8000
3C7FFF0000
383FFC0000
000FE00000
ENDCHAR

STARTCHAR c
ENCODING 99
SWIDTH 647 0
DWIDTH 32 0
BBX 31 29 0 -1
BITMAP
0007FE00
001FFF80
007FFFC0
00FE0FE0
03F001F0
03C000F8
0780003C
0F000030
0E000000
1E000000
1C000000
3C000000
3C000000
38000000
38000000
38000000
38000000
38000000
3C000000
3C000000
3C000000
1E000040
1E0000E0
0F0001F0
07C007E0
07F03FC0
01FFFF80
00FFFE00
001FF000
ENDCHAR

STARTCHAR d
ENCODING 100
SWIDTH 685 0
DWIDTH 34 0
BBX 34 38 0 -1
BITMAP
0000000780
0000000700
0000000700
0000000700
0000000700
0000000F00
0000000F00
0000000F00
0000000F00
0007F80E00
001FFE0E00
007FFF8E00
00FC0FDE00
01F003DE00
03C001FE00
078000FE00
0F00007C00
0E00003C00
1E00003C00
1C00003C00
3C00003C00
3C00003C00
3800003C00
3800003C00
3800003800
3800003800
3800003800
3C00007800
3C00007800
1C0000F800
1E0000F800
1E0001F000
0F0003F000
07C00FF000
07F03E7000
01FFFCF000
00FFF8F000
003FC00000
ENDCHAR

STARTCHAR e
ENCODING 101
SWIDTH 650 0
DWIDTH 32 0
BBX 31 29 0 -1
BITMAP
0007FC00
003FFF00
007FFF80
01FE1FC0
03F003E0
07C001E0
078000F0
0F000070
0E000078
1E000078
1C000038
3C000038
3FFFFFF8
3FFFFFF8
3FFFFFF8
38000000
38000000
38000000
3C000000
3C000000
1C000000
1E000100
1E000180
0F0007C0
07C00F80
03F07F00
01FFFE00
00FFF800
003FC000
ENDCHAR

STARTCHAR f
ENCODING 102
SWIDTH 314 0
DWIDTH 16 0
BBX 18 38 0 0
BITMAP
003E00
00FF00
00FF00
01E300
01C000
01C000
03C000
03C000
038000
038000
038000
3FFE00
3FFC00
3FFC00
078000
078000
070000
070000
070000
070000
0F0000
0F0000
0F0000
0E0000
0E0000
0E0000
0E0000
1E0000
1E0000
1E0000
1C0000
1C0000
1C0000
1C0000
3C0000
3C0000
3C0000
3C0000
ENDCHAR

STARTCHAR g
ENCODING 103
SWIDTH 673 0
DWIDTH 34 0
BBX 33 39 -1 -11
BITMAP
0001FC0000
000FFF0700
003FFF8F00
007E07CF00
00F801EE00
01E000FE00
03C0007E00
0780003E00
0700003E00
0F00001E00
0E00001E00
1E00001E00
1E00001C00
1C00001C00
1C00001C00
1C00001C00
1C00001C00
1C00003C00
1E00003C00
1E00007800
0E00007800
0F0000F800
078003F800
07C007B800
03F83F7800
01FFFE7800
007FFC7800
001FE07000
0000007000
0000007000
000000F000
3C0000E000
3C0001E000
1E0003C000
0F800F8000
07E07F0000
03FFFE0000
01FFFC0000
003FE00000
ENDCHAR

STARTCHAR h
ENCODING 104
SWIDTH 610 0
DWIDTH 31 0
BBX 28 37 0 0
BITMAP
03C00000
03800000
03800000
03800000
03800000
03800000
07800000
07800000
07000000
0703F000
070FFC00
073FFF00
077C1F80
0FF00780
0FC003C0
0F8003C0
0F8001C0
0F0001C0
0F0001C0
0E0001C0
1E0001C0
1E0001C0
1E0001C0
1C0001C0
1C0003C0
1C0003C0
1C000380
1C000380
3C000380
3C000380
3C000380
38000780
38000780
38000700
38000700
78000700
78000700
ENDCHAR

STARTCHAR i
ENCODING 105
SWIDTH 200 0
DWIDTH 10 0
BBX 12 38 -1 0
BITMAP
0180
03C0
07E0
07E0
03C0
0180
0000
0000
0000
0000
0000
0780
0700
0700
0700
0700
0700
0F00
0F00
0E00
0E00
0E00
0E00
0E00
0E00
1E00
1E00
1C00
1C00
1C00
1C00
1C00
3C00
3C00
3800
3800
3800
3800
ENDCHAR

STARTCHAR j
ENCODING 106
SWIDTH 203 0
DWIDTH 10 0
BBX 17 49 -6 -11
BITMAP
000C00
001E00
003F00
003F00
001E00
000C00
000000
000000
000000
000000
000000
003C00
003800
003800
003800
003800
003800
007800
007800
007800
007000
007000
007000
007000
007000
00F000
00F000
00E000
00E000
00E000
00E000
00E000
01E000
01E000
01E000
01C000
01C000
01C000
01C000
01C000
03C000
03C000
038000
038000
078000
078000
3F0000
3F0000
3C0000
ENDCHAR

STARTCHAR k
ENCODING 107
SWIDTH 502 0
DWIDTH 25 0
BBX 27 37 -1 0
BITMAP
01C00000
01C00000
01C00000
01C00000
01C00000
03C00000
03C00000
03800000
03800000
03800000
03800F80
03801F00
07807E00
0780F800
0701F000
0707E000
070F8000
071F0000
073E0000
0FFC0000
0FF00000
0FE00000
0FE00000
0FF00000
0EF80000
0E7C0000
1E3C0000
1E1E0000
1C0F0000
1C078000
1C07C000
1C03E000
1C01F000
3C00F800
3C007C00
3C003E00
38001F00
ENDCHAR

STARTCHAR l
ENCODING 108
SWIDTH 200 0
DWIDTH 10 0
BBX 11 37 -1 0
BITMAP
01C0
03C0
03C0
0380
0380
0380
0380
0380
0780
0780
0700
0700
0700
0700
0700
0F00
0F00
0E00
0E00
0E00
0E00
0E00
1E00
1E00
1E00
1C00
1C00
1C00
1C00
3C00
3C00
3C00
3800
3800
3800
3800
7800
ENDCHAR

STARTCHAR m
ENCODING 109
SWIDTH 938 0
DWIDTH 47 0
BBX 45 28 -1 0
BITMAP
0003F001FC00
079FFC07FF00
073FFE0FFF80
077C1F1F0FC0
07F00F3C03C0
07E007F801E0
07C003F001E0
078003E000E0
0F0003C000E0
0F0003C000E0
0F0003C000E0
0E00038000E0
0E00038000E0
0E00038000E0
0E00078001E0
1E00078001C0
1E00078001C0
1C00070001C0
1C00070001C0
1C00070001C0
1C00070001C0
1C000F0003C0
3C000F0003C0
3C000F000380
38000E000380
38000E000380
38000E000380
38000E000380
ENDCHAR

STARTCHAR n
ENCODING 110
SWIDTH 610 0
DWIDTH 31 0
BBX 28 28 0 0
BITMAP
0003F800
071FFE00
073FFF00
077C1F80
07F00780
0FC003C0
0F8003C0
0F8001C0
0F0001C0
0F0001C0
0E0001C0
0E0001C0
1E0001C0
1E0001C0
1C0001C0
1C0003C0
1C0003C0
1C000380
1C000380
3C000380
3C000380
3C000380
38000780
38000780
38000700
38000700
38000700
78000700
ENDCHAR

STARTCHAR o
ENCODING 111
SWIDTH 655 0
DWIDTH 33 0
BBX 31 29 0 -1
BITMAP
0007F800
003FFE00
007FFF80
01FC1FC0
03F003E0
07C001E0
078000F0
0F0000F0
0E000078
1E000078
1C000038
3C000038
3C000038
38000038
38000038
38000038
38000078
38000078
3C000070
3C0000F0
3C0000F0
1E0001E0
1E0003E0
0F0007C0
0FC00F80
07F07F00
01FFFE00
00FFF800
003FC000
ENDCHAR

STARTCHAR p
ENCODING 112
SWIDTH 682 0
DWIDTH 34 0
BBX 34 38 -1 -10
BITMAP
0000FF0000
03C7FFC000
03CFFFF000
039F03F800
03BC007C00
03F0003C00
03E0001E00
03C0001E00
07C0000F00
0780000F00
0780000700
0700000700
0700000700
0700000700
0700000700
0F00000700
0F00000F00
0F00000F00
0F00000E00
0F00001E00
0F00001C00
0F80003C00
0FC0007800
1FE000F000
1EF003F000
1E7C0FC000
1C3FFF8000
1C1FFE0000
1C07F80000
1C00000000
3C00000000
3C00000000
3C00000000
3C00000000
3800000000
3800000000
3800000000
3800000000
ENDCHAR

STARTCHAR q
ENCODING 113
SWIDTH 682 0
DWIDTH 34 0
BBX 33 38 0 -10
BITMAP
0003F80000
001FFE0E00
007FFF8E00
00FC0FDE00
01F003DE00
03C001FE00
078000FE00
0F00007C00
0E00003C00
1E00003C00
1C00003C00
1C00003C00
3C00003C00
3800003C00
3800003800
3800003800
3800003800
3800003800
3C00007800
3C00007800
3C0000F800
1E0000F800
1E0001F000
0F0003F000
07C00FF000
07F03E7000
01FFFC7000
00FFF8F000
003FC0F000
000000F000
000000E000
000000E000
000000E000
000000E000
000001E000
000001E000
000001E000
000001C000
ENDCHAR

STARTCHAR r
ENCODING 114
SWIDTH 301 0
DWIDTH 15 0
BBX 20 28 -2 0
BITMAP
000FC0
079FC0
077FC0
077880
07E000
07C000
078000
0F8000
0F0000
0F0000
0F0000
0E0000
0E0000
0E0000
1E0000
1E0000
1E0000
1C0000
1C0000
1C0000
1C0000
1C0000
3C0000
3C0000
380000
380000
380000
380000
ENDCHAR

STARTCHAR s
ENCODING 115
SWIDTH 388 0
DWIDTH 19 0
BBX 21 29 -2 -1
BITMAP
003F00
00FF80
01FFC0
03E3E0
0780E0
078040
070000
070000
070000
078000
03C000
01F000
01F800
007C00
003E00
001F00
000F80
0003C0
0003C0
0001C0
0001C0
0001C0
0001C0
1803C0
3C0780
1F0F80
0FFF00
07FE00
01F800
ENDCHAR

STARTCHAR t
ENCODING 116
SWIDTH 339 0
DWIDTH 17 0
BBX 17 37 1 0
BITMAP
00E000
00E000
00E000
01E000
01E000
01C000
01C000
01C000
01C000
01C000
3FFE00
3FFE00
3FFE00
038000
038000
038000
038000
038000
078000
078000
078000
070000
070000
070000
070000
0F0000
0F0000
0F0000
0E0000
0E0000
0E0000
0E0000
0E0000
1E0000
1E0000
1E0000
1C0000
ENDCHAR

STARTCHAR u
ENCODING 117
SWIDTH 608 0
DWIDTH 30 0
BBX 28 28 1 -1
BITMAP
0E0001E0
0E0001C0
0E0001C0
1E0001C0
1E0001C0
1E0001C0
1C0003C0
1C0003C0
1C0003C0
1C000380
1C000380
3C000380
3C000380
3C000780
38000780
38000780
38000700
38000700
38000700
38000F00
3C000E00
3C001E00
1E003E00
1F007C00
0FC1F800
07FFF000
01FFE000
007F0000
ENDCHAR

STARTCHAR v
ENCODING 118
SWIDTH 554 0
DWIDTH 28 0
BBX 28 27 0 0
BITMAP
380001C0
380003C0
3C000780
1C000700
1C000F00
1E000E00
0E001E00
0E001C00
0F003C00
07007800
07007000
0780F000
0380E000
0381E000
03C1C000
01C3C000
01C78000
01E78000
00EF0000
00FE0000
00FE0000
007C0000
007C0000
00780000
00380000
00300000
00200000
ENDCHAR

STARTCHAR w
ENCODING 119
SWIDTH 831 0
DWIDTH 42 0
BBX 42 27 0 0
BITMAP
380008000700
3C000C000F00
3C001C000E00
1C001C001E00
1C003E001C00
1E003E003C00
0E007E003800
0E007F007800
0F00FF007000
0F00E700F000
0701E700E000
0701C781E000
0783C381C000
03838383C000
038783C38000
03CF01C78000
03CF01C70000
01DE01EF0000
01DE01EE0000
01FC00FE0000
00FC00FC0000
00F800FC0000
00F000780000
00F000780000
006000700000
006000300000
004000200000
ENDCHAR

STARTCHAR x
ENCODING 120
SWIDTH 480 0
DWIDTH 24 0
BBX 26 27 -2 0
BITMAP
1E000F80
0F000F00
0F001E00
07803C00
03C03C00
03C07800
01E0F000
01E1E000
00F1E000
007BC000
007F8000
003F8000
003F0000
001E0000
003F0000
003F0000
007F8000
00F78000
00F3C000
01E1E000
03C1E000
0780F000
0780F000
0F007800
1E003C00
3C003C00
3C001E00
ENDCHAR

STARTCHAR y
ENCODING 121
SWIDTH 536 0
DWIDTH 27 0
BBX 28 37 0 -10
BITMAP
780001C0
380003C0
3C000380
3C000780
1C000F00
1E000F00
1E001E00
0E001C00
0F003C00
0F003800
07007800
0780F000
0780F000
0381E000
03C1C000
01C3C000
01C38000
01E78000
00EF0000
00EF0000
00FE0000
007E0000
007C0000
00780000
00780000
00F00000
00F00000
01E00000
01E00000
03C00000
03800000
07800000
0F000000
0F000000
1E000000
1E000000
3C000000
ENDCHAR

STARTCHAR z
ENCODING 122
SWIDTH 425 0
DWIDTH 21 0
BBX 25 27 -3 0
BITMAP
07FFFE00
07FFFE00
07FFFC00
00007800
00007800
0000F000
0001E000
0001E000
0003C000
00078000
00078000
000F0000
001E0000
001E0000
003C0000
00780000
00780000
00F00000
01E00000
01E00000
03C00000
07800000
07800000
0F000000
1FFFFC00
1FFFFC00
3FFFFC00
ENDCHAR

STARTCHAR braceleft
ENCODING 123
SWIDTH 351 0
DWIDTH 18 0
BBX 21 47 -1 -11
BITMAP
0001E0
0007E0
000FE0
001FE0
003E00
003C00
003C00
003C00
007800
007800
007800
007800
007800
007800
00F000
00F000
00F000
00F000
01E000
01E000
03C000
1F8000
3F0000
3C0000
3F0000
3F8000
078000
03C000
03C000
03C000
03C000
03C000
03C000
03C000
03C000
03C000
078000
078000
078000
078000
078000
078000
07C000
07F800
03F800
03F800
00F800
ENDCHAR

STARTCHAR bar
ENCODING 124
SWIDTH 672 0
DWIDTH 34 0
BBX 6 47 14 -10
BITMAP
78
78
78
78
78
78
78
78
78
78
78
78
78
78
78
78
78
78
78
78
78
78
78
78
78
78
78
78
78
78
78
78
78
78
78
78
78
78
78
78
78
78
78
78
78
78
78
ENDCHAR

STARTCHAR braceright
ENCODING 125
SWIDTH 351 0
DWIDTH 18 0
BBX 21 47 -6 -11
BITMAP
00F800
00FE00
00FE00
00FF00
001F00
000F00
000F00
000F00
000F00
000F00
000F00
001F00
001E00
001E00
001E00
001E00
001E00
001E00
001E00
001F00
000F00
000FE0
0007E0
0001E0
0007E0
000FC0
001E00
003C00
003C00
007800
007800
007800
007800
00F800
00F000
00F000
00F000
00F000
00F000
00F000
01E000
01E000
03E000
3FC000
3FC000
3F0000
3C0000
ENDCHAR

STARTCHAR asciitilde
ENCODING 126
SWIDTH 606 0
DWIDTH 30 0
BBX 28 8 1 14
BITMAP
03E00000
0FF80000
3FFE0060
3FFFC1E0
381FFFE0
2007FFC0
0001FF80
00003C00
ENDCHAR

STARTCHAR space
ENCODING 160
SWIDTH 277 0
DWIDTH 17 0
BBX 0 0 0 0
BITMAP
ENDCHAR

STARTCHAR Aogonek
ENCODING 161
SWIDTH 740 0
DWIDTH 37 0
BBX 38 46 -3 -10
BITMAP
0000030000
0000030000
0000070000
0000078000
00000F8000
00001F8000
00001FC000
00003FC000
00003DC000
000079E000
000079E000
0000F0E000
0001E0F000
0001E0F000
0003C07000
0003C07800
0007807800
0007803800
000F003C00
001E003C00
001E001C00
003FFFFE00
003FFFFE00
007FFFFE00
0070000F00
00F0000F00
01E0000700
01E0000780
03C0000780
03C0000380
07800003C0
07000003C0
0F000001C0
1E000001E0
1E000001E0
3C000000E0
00000000E0
00000001C0
0000000380
0000000300
0000000700
0000000700
0000000700
0000000780
00000003F8
00000001F0
ENDCHAR

STARTCHAR breve
ENCODING 162
SWIDTH 453 0
DWIDTH 23 0
BBX 20 5 4 32
BITMAP
7801C0
3C0780
1FFF80
0FFE00
01F000
ENDCHAR

STARTCHAR Lslash
ENCODING 163
SWIDTH 517 0
DWIDTH 26 0
BBX 25 36 -1 0
BITMAP
00F00000
00F00000
00F00000
00F00000
00E00000
00E00000
00E00000
01E00000
01E00000
01E00000
01E00000
01E00000
01C08000
01C38000
01CF8000
03FF0000
03FF0000
03FC0000
0FF00000
3FC00000
3F800000
3F800000
73800000
47800000
07800000
07800000
07800000
07000000
07000000
07000000
0F000000
0F000000
0F000000
0FFFFE00
0FFFFE00
0FFFFE00
ENDCHAR

STARTCHAR currency
ENCODING 164
SWIDTH 554 0
DWIDTH 28 0
BBX 29 25 -1 5
BITMAP
181FE0C0
3CFFF9E0
3FFFFFE0
1FF87FC0
0FC01F80
0F800780
1F0003C0
1E0003C0
3C0001E0
3C0001E0
380000E0
380000E0
380000E0
380000E0
380000E0
3C0001E0
3C0001E0
1E0003C0
1F0003C0
0F800780
0FC01F80
1FF87FC0
3FFFFDE0
38FFF8E0
101FE040
ENDCHAR

STARTCHAR Lcaron
ENCODING 165
SWIDTH 462 0
DWIDTH 23 0
BBX 22 36 0 0
BITMAP
03C780
03C780
038780
038780
038780
078F80
078F80
078300
078300
070300
070600
070600
070C00
0F0000
0F0000
0F0000
0F0000
0E0000
0E0000
0E0000
1E0000
1E0000
1E0000
1E0000
1C0000
1C0000
1C0000
1C0000
3C0000
3C0000
3C0000
3C0000
380000
3FFFF8
3FFFF8
3FFFF8
ENDCHAR

STARTCHAR Sacute
ENCODING 166
SWIDTH 498 0
DWIDTH 25 0
BBX 25 48 -1 -1
BITMAP
00007C00
0000F800
0001F000
0003E000
0003C000
00078000
000F0000
001C0000
00000000
00000000
001FC000
007FE000
00FFF800
00F8F800
01E07C00
01C03C00
03C01E00
03C00E00
03C00000
03C00000
03C00000
01E00000
01E00000
00F00000
00F80000
007C0000
003E0000
001E0000
000F0000
00078000
0003C000
0003E000
0001F000
0000F000
0000F000
00007800
00007800
00007800
08007800
78007800
78007000
3C00F000
3C00F000
1E01E000
1F87C000
0FFF8000
07FF0000
01FC0000
ENDCHAR

STARTCHAR section
ENCODING 167
SWIDTH 615 0
DWIDTH 31 0
BBX 27 48 0 -11
BITMAP
0007F800
000FFE00
003FFF00
003E1F00
00780780
00F00780
00F00380
00E003C0
00E00000
00E00000
00F00000
00F80000
00780000
003E0000
001F0000
003FC000
00FFE000
01F1F000
03C0FC00
07803C00
0F001E00
0E000F00
0E000700
0E000700
0F000700
0F000700
07800F00
07C00E00
03F03E00
01F87C00
00FFF000
003FC000
001F8000
0007C000
0003E000
0001F000
0000F000
00007000
00007800
00007800
00007800
3C007000
3C00F000
1E01F000
1F03E000
0FFFC000
07FF8000
01FC0000
ENDCHAR

STARTCHAR dieresis
ENCODING 168
SWIDTH 369 0
DWIDTH 18 0
BBX 18 6 2 31
BITMAP
1C0700
3E0F80
7E1F80
7E1F80
3C0F00
180E00
ENDCHAR

STARTCHAR Scaron
ENCODING 169
SWIDTH 498 0
DWIDTH 25 0
BBX 26 46 -1 -1
BITMAP
01F01F00
00F83C00
007CF800
003FF000
001FC000
000F8000
00000000
00000000
001FC000
007FE000
00FFF800
00F8F800
01E07C00
01C03C00
03C01E00
03C00E00
03C00000
03C00000
03C00000
01E00000
01E00000
00F00000
00F80000
007C0000
003E0000
001E0000
000F0000
00078000
0003C000
0003E000
0001F000
0000F000
0000F000
00007800
00007800
00007800
08007800
78007800
78007000
3C00F000
3C00F000
1E01E000
1F87C000
0FFF8000
07FF0000
01FC0000
ENDCHAR

STARTCHAR Scommaaccent
ENCODING 170
SWIDTH 498 0
DWIDTH 25 0
BBX 25 47 -1 -10
BITMAP
001FC000
007FE000
00FFF800
00F8F800
01E07C00
01C03C00
03C01E00
03C00E00
03C00000
03C00000
03C00000
01E00000
01E00000
00F00000
00F80000
007C0000
003E0000
001E0000
000F0000
00078000
0003C000
0003E000
0001F000
0000F000
0000F000
00007800
00007800
00007800
08007800
78007800
78007000
3C00F000
3C00F000
1E01E000
1F87C000
0FFF8000
07FF0000
01FC0000
00000000
00000000
00700000
00700000
00F00000
00F00000
00300000
00200000
00600000
ENDCHAR

STARTCHAR Tcaron
ENCODING 171
SWIDTH 426 0
DWIDTH 21 0
BBX 25 45 0 0
BITMAP
07C07C00
03E0F800
01F1E000
00FFC000
007F8000
003E0000
00000000
00000000
00000000
3FFFFE00
3FFFFE00
3FFFFE00
003C0000
00380000
00380000
00380000
00380000
00780000
00780000
00780000
00780000
00700000
00700000
00700000
00F00000
00F00000
00F00000
00F00000
00F00000
00E00000
00E00000
00E00000
01E00000
01E00000
01E00000
01E00000
01C00000
01C00000
01C00000
01C00000
03C00000
03C00000
03C00000
03C00000
03800000
ENDCHAR

STARTCHAR Zacute
ENCODING 172
SWIDTH 480 0
DWIDTH 24 0
BBX 26 46 -1 0
BITMAP
00007C00
0000F800
0001F000
0001E000
0003C000
00078000
000F0000
00000000
00000000
00000000
03FFFF00
03FFFF00
03FFFE00
00001E00
00003C00
00003C00
00007800
00007800
0000F000
0000F000
0001E000
0001E000
0003C000
00038000
00078000
00070000
000F0000
001E0000
001E0000
003C0000
003C0000
00780000
00780000
00F00000
00F00000
01E00000
01C00000
03C00000
03800000
07800000
07000000
0F000000
1E000000
1FFFF800
3FFFF000
3FFFF000
ENDCHAR

STARTCHAR hyphen
ENCODING 173
SWIDTH 332 0
DWIDTH 17 0
BBX 16 3 -1 12
BITMAP
7FFE
7FFE
7FFE
ENDCHAR

STARTCHAR Zcaron
ENCODING 174
SWIDTH 480 0
DWIDTH 24 0
BBX 27 45 -1 0
BITMAP
00F80F80
007C1E00
003E3C00
001FF800
000FF000
0007C000
00000000
00000000
00000000
03FFFF00
03FFFF00
03FFFE00
00001E00
00003C00
00003C00
00007800
00007800
0000F000
0000F000
0001E000
0001E000
0003C000
00038000
00078000
00070000
000F0000
001E0000
001E0000
003C0000
003C0000
00780000
00780000
00F00000
00F00000
01E00000
01C00000
03C00000
03800000
07800000
07000000
0F000000
1E000000
1FFFF800
3FFFF000
3FFFF000
ENDCHAR

STARTCHAR Zdotaccent
ENCODING 175
SWIDTH 480 0
DWIDTH 24 0
BBX 26 45 -1 0
BITMAP
00038000
0007C000
000FC000
000FC000
000F8000
00070000
00000000
00000000
00000000
03FFFF00
03FFFF00
03FFFE00
00001E00
00003C00
00003800
00007800
00007000
0000F000
0000E000
0001E000
0003C000
0003C000
00078000
00078000
000F0000
000F0000
001E0000
001E0000
003C0000
00380000
00780000
00700000
00F00000
01E00000
01E00000
03C00000
03C00000
07800000
07800000
0F000000
0F000000
1E000000
1FFFF000
3FFFF000
3FFFF000
ENDCHAR

STARTCHAR degree
ENCODING 176
SWIDTH 400 0
DWIDTH 20 0
BBX 20 17 2 20
BITMAP
01F000
07FC00
0FFE00
1E0F00
3C0780
3803C0
7001C0
7001C0
7001C0
7001C0
7001C0
380380
3C0780
1E0F00
0FFE00
07FC00
01F000
ENDCHAR

STARTCHAR aogonek
ENCODING 177
SWIDTH 683 0
DWIDTH 34 0
BBX 33 38 0 -10
BITMAP
0007F80000
001FFE1E00
007FFF1E00
00FC0F9E00
03F003DE00
03C001FC00
078000FC00
0F00007C00
0E00007C00
1E00003C00
1C00003C00
3C00003C00
3C00003C00
3800003800
3800003800
3800003800
3800003800
3800003800
3C00007800
3C00007800
3C0000F000
1E0001F000
1E0001F000
0F0007F000
0F800F7000
07F07EF000
03FFFCF000
00FFF0F000
003FC06000
000001C000
0000018000
0000030000
0000070000
0000070000
0000070000
0000078000
000003F800
000001F000
ENDCHAR

STARTCHAR ogonek
ENCODING 178
SWIDTH 302 0
DWIDTH 15 0
BBX 10 10 3 -9
BITMAP
0600
0C00
1800
3000
7000
7000
7000
7800
3F80
1F00
ENDCHAR

STARTCHAR lslash
ENCODING 179
SWIDTH 300 0
DWIDTH 15 0
BBX 17 37 -1 0
BITMAP
007000
007000
007000
007000
00F000
00F000
00E000
00E000
00E000
00E000
00E000
01E000
01E300
01CF00
01DE00
01FE00
01FC00
07F000
0FC000
3FC000
3FC000
3B8000
638000
038000
038000
038000
078000
078000
070000
070000
070000
070000
070000
0F0000
0F0000
0E0000
0E0000
ENDCHAR

STARTCHAR acute
ENCODING 180
SWIDTH 375 0
DWIDTH 19 0
BBX 15 7 6 32
BITMAP
00F8
01F0
03E0
07C0
0F00
0E00
1C00
ENDCHAR

STARTCHAR lcaron
ENCODING 181
SWIDTH 200 0
DWIDTH 10 0
BBX 17 37 -1 0
BITMAP
01CE00
03CE00
03DE00
039E00
039E00
039E00
038600
038C00
078C00
079800
071800
070000
070000
070000
070000
0F0000
0F0000
0E0000
0E0000
0E0000
0E0000
0E0000
1E0000
1E0000
1E0000
1C0000
1C0000
1C0000
1C0000
3C0000
3C0000
3C0000
380000
380000
380000
380000
780000
ENDCHAR

STARTCHAR sacute
ENCODING 182
SWIDTH 388 0
DWIDTH 19 0
BBX 22 41 -2 -1
BITMAP
0001F0
0003E0
0007C0
000F80
000F00
001E00
003800
007000
000000
000000
000000
000000
003F00
00FF80
01FFC0
03E3E0
0780E0
078040
070000
070000
070000
078000
03C000
03F000
01F800
007C00
003E00
001F00
000F80
0007C0
0003C0
0001C0
0001C0
0001C0
0001C0
1803C0
3C07C0
1F0F80
0FFF00
07FE00
01F800
ENDCHAR

STARTCHAR caron
ENCODING 183
SWIDTH 502 0
DWIDTH 25 0
BBX 21 7 5 31
BITMAP
3C03E0
1E07C0
1F0F00
0FBE00
07FC00
03F000
01E000
ENDCHAR

STARTCHAR commaaccent
ENCODING 184
SWIDTH 333 0
DWIDTH 17 0
BBX 7 7 5 -10
BITMAP
3C
3C
38
78
18
18
30
ENDCHAR

STARTCHAR scaron
ENCODING 185
SWIDTH 388 0
DWIDTH 19 0
BBX 23 40 -2 -1
BITMAP
07807C
07C0F8
03E1E0
01F7C0
00FF80
007E00
003C00
000000
000000
000000
000000
003F00
00FF80
01FFC0
03E3E0
0780E0
078040
070000
070000
070000
078000
03C000
03F000
01F800
007C00
003E00
001F00
000F80
0007C0
0003C0
0001C0
0001C0
0001C0
0001C0
1803C0
3C07C0
1F0F80
0FFF00
07FE00
01F800
ENDCHAR

STARTCHAR scommaaccent
ENCODING 186
SWIDTH 388 0
DWIDTH 19 0
BBX 21 39 -2 -11
BITMAP
003F00
00FF80
01FFC0
03E3E0
0780E0
078040
070000
070000
070000
078000
03C000
03F000
01F800
007C00
003E00
001F00
000F80
0007C0
0003C0
0001C0
0001C0
0001C0
0001C0
1803C0
3C07C0
1F0F80
0FFF00
07FE00
01F800
000000
000000
00E000
01E000
01E000
01E000
006000
004000
00C000
008000
ENDCHAR

STARTCHAR tcaron
ENCODING 187
SWIDTH 377 0
DWIDTH 19 0
BBX 18 37 2 0
BITMAP
000780
01E700
01E700
01C700
01C300
01C200
01C600
03CC00
03C000
03C000
7FFC00
7FFC00
7FFC00
038000
038000
078000
078000
078000
070000
070000
070000
070000
0F0000
0F0000
0F0000
0E0000
0E0000
0E0000
0E0000
1E0000
1E0000
1E0000
1E0000
1C0000
1C0000
1C0000
1C0000
ENDCHAR

STARTCHAR zacute
ENCODING 188
SWIDTH 425 0
DWIDTH 21 0
BBX 25 40 -3 0
BITMAP
00007E00
00007C00
0000F000
0001E000
0003C000
00078000
000F0000
001E0000
00000000
00000000
00000000
00000000
00000000
07FFFE00
07FFFE00
07FFFC00
00007800
00007800
0000F000
0001E000
0001E000
0003C000
00078000
00078000
000F0000
001E0000
001E0000
003C0000
00780000
00780000
00F00000
01E00000
01E00000
03C00000
07800000
07800000
0F000000
1FFFFC00
1FFFFC00
3FFFFC00
ENDCHAR

STARTCHAR hungarumlaut
ENCODING 189
SWIDTH 552 0
DWIDTH 28 0
BBX 22 8 7 31
BITMAP
01F1F0
03E3E0
03C7C0
078F80
0F0F00
1E1E00
3C3C00
787000
ENDCHAR

STARTCHAR zcaron
ENCODING 190
SWIDTH 425 0
DWIDTH 21 0
BBX 26 38 -3 0
BITMAP
01E01E00
00F07C00
0078F800
003DE000
001FC000
000F8000
00000000
00000000
00000000
00000000
00000000
07FFFE00
07FFFE00
07FFFC00
00007800
00007800
0000F000
0001E000
0001E000
0003C000
00078000
00078000
000F0000
001E0000
001E0000
003C0000
00780000
00780000
00F00000
01E00000
01E00000
03C00000
07800000
07800000
0F000000
1FFFFC00
1FFFFC00
3FFFFC00
ENDCHAR

STARTCHAR zdotaccent
ENCODING 191
SWIDTH 425 0
DWIDTH 21 0
BBX 25 38 -3 0
BITMAP
00038000
0007C000
000FC000
000FC000
000F8000
00070000
00000000
00000000
00000000
00000000
00000000
07FFFE00
07FFFE00
07FFFC00
00003800
00007800
0000F000
0000E000
0001E000
0003C000
00038000
00078000
000F0000
000F0000
001E0000
003C0000
003C0000
00780000
00F00000
00F00000
01E00000
03C00000
03C00000
07800000
0F000000
0FFFFC00
1FFFFC00
3FFFFC00
ENDCHAR

STARTCHAR Racute
ENCODING 192
SWIDTH 607 0
DWIDTH 30 0
BBX 28 46 1 0
BITMAP
00003E00
00007C00
0000F800
0000F000
0001E000
0003C000
00078000
00000000
00000000
00000000
03FFFC00
03FFFF00
03FFFF80
03801F80
038003C0
038003C0
078001E0
078001E0
078001E0
078001E0
070001E0
070001C0
070003C0
0F0007C0
0F000F80
0F007F00
0FFFFE00
0FFFFC00
0FFFF000
0E3C0000
0E1E0000
1E0F0000
1E0F0000
1E078000
1E03C000
1C03C000
1C01E000
1C00F000
3C00F000
3C007800
3C007800
3C003C00
38001E00
38001E00
38000F00
78000780
ENDCHAR

STARTCHAR Aacute
ENCODING 193
SWIDTH 740 0
DWIDTH 37 0
BBX 36 46 -2 0
BITMAP
0000007C00
000000F800
000001F000
000003C000
0000078000
0000070000
00000E0000
0000000000
0000000000
0000000000
0000020000
0000060000
0000070000
00000F0000
00001F0000
00001F8000
00003F8000
00003F8000
00007BC000
000073C000
0000F1C000
0001E1E000
0001E1E000
0003C0E000
0003C0F000
000780F000
0007007000
000F007800
001E007800
001E003800
003C003C00
003FFFFC00
007FFFFC00
007FFFFE00
00F0001E00
01E0000E00
01E0000F00
03C0000F00
03C0000700
0780000780
0700000780
0F00000380
1E000003C0
1E000003C0
3C000001C0
3C000001E0
ENDCHAR

STARTCHAR Acircumflex
ENCODING 194
SWIDTH 740 0
DWIDTH 37 0
BBX 36 45 -2 0
BITMAP
0000078000
00000FC000
00003FE000
00007CF000
0000F87800
0001E03C00
0000000000
0000000000
0000000000
0000020000
0000060000
0000070000
00000F0000
00001F0000
00001F8000
00003F8000
00003F8000
00007BC000
000073C000
0000F1C000
0001E1E000
0001E1E000
0003C0E000
0003C0F000
000780F000
0007007000
000F007800
001E007800
001E003800
003C003C00
003FFFFC00
007FFFFC00
007FFFFE00
00F0001E00
01E0000E00
01E0000F00
03C0000F00
03C0000700
0780000780
0700000780
0F00000380
1E000003C0
1E000003C0
3C000001C0
3C000001E0
ENDCHAR

STARTCHAR Abreve
ENCODING 195
SWIDTH 740 0
DWIDTH 37 0
BBX 36 44 -2 0
BITMAP
0001C00E00
0001F03E00
0000FFFC00
00007FF000
00000F8000
0000000000
0000000000
0000000000
0000020000
0000060000
0000070000
00000F0000
00001F0000
00001F8000
00003F8000
00003F8000
00007BC000
000073C000
0000F1C000
0001E1E000
0001E1E000
0003C0E000
0003C0F000
000780F000
0007007000
000F007800
001E007800
001E003800
003C003C00
003FFFFC00
007FFFFC00
007FFFFE00
00F0001E00
01E0000E00
01E0000F00
03C0000F00
03C0000700
0780000780
0700000780
0F00000380
1E000003C0
1E000003C0
3C000001C0
3C000001E0
ENDCHAR

STARTCHAR Adieresis
ENCODING 196
SWIDTH 740 0
DWIDTH 37 0
BBX 37 44 -2 0
BITMAP
0000701C00
0000F83E00
0001F87E00
0001F87E00
0000F03C00
0000401000
0000000000
0000000000
0000020000
0000030000
0000070000
00000F0000
00000F8000
00001F8000
00001F8000
00003FC000
00003BC000
000079C000
0000F1E000
0000F1E000
0001E0E000
0001E0F000
0003C0F000
0003807000
0007807800
000F007800
000F003800
001E003C00
001E003C00
003FFFFC00
007FFFFE00
007FFFFE00
00F0000E00
00F0000F00
01E0000F00
01E0000700
03C0000780
0780000780
0780000380
0F000003C0
0F000003C0
1E000001C0
1E000001E0
3C000001E0
ENDCHAR

STARTCHAR Lacute
ENCODING 197
SWIDTH 462 0
DWIDTH 23 0
BBX 24 46 0 0
BITMAP
0000F8
0001F0
0001E0
0003C0
000780
000F00
001E00
000000
000000
000000
03C000
03C000
038000
038000
038000
078000
078000
078000
078000
070000
070000
070000
070000
0F0000
0F0000
0F0000
0F0000
0E0000
0E0000
0E0000
1E0000
1E0000
1E0000
1E0000
1C0000
1C0000
1C0000
1C0000
3C0000
3C0000
3C0000
3C0000
380000
3FFFF8
3FFFF8
3FFFF8
ENDCHAR

STARTCHAR Cacute
ENCODING 198
SWIDTH 813 0
DWIDTH 41 0
BBX 39 48 1 -1
BITMAP
000000F800
000001F000
000001E000
000003C000
0000078000
00000F0000
00001E0000
00003C0000
0000000000
0000000000
00007FF800
0003FFFF00
000FFFFFC0
003FF03FE0
007F0007F0
00FC0001FC
01F0000078
03E0000030
07C0000010
0780000000
0F00000000
1E00000000
1E00000000
1C00000000
3C00000000
3C00000000
3800000000
7800000000
7800000000
7800000000
7800000000
7800000000
7800000000
7800000000
3800000000
3C00000000
3C00000000
3C00000000
1E00000000
1F00000000
0F80000000
07C0000180
07E0000780
03F8001FC0
00FF81FF00
007FFFFE00
001FFFF000
0003FFC000
ENDCHAR

STARTCHAR Ccedilla
ENCODING 199
SWIDTH 813 0
DWIDTH 41 0
BBX 39 47 1 -10
BITMAP
00007FF000
0003FFFE00
000FFFFF80
003FE07FE0
007F0007F0
00FC0001F8
01F00000F8
03E0000030
07C0000000
0F80000000
0F00000000
1E00000000
1E00000000
3C00000000
3C00000000
3C00000000
3800000000
7800000000
7800000000
7800000000
7800000000
7800000000
7800000000
7800000000
3800000000
3C00000000
3C00000000
3C00000000
1E00000000
1F00000000
0F00000000
07C0000300
07E0000F80
03F8003F80
01FF03FF00
007FFFFC00
001FFFF000
0007FF8000
0000C00000
0000C00000
0000F00000
0001F80000
0000380000
0000380000
0000700000
001FF00000
000FC00000
ENDCHAR

STARTCHAR Ccaron
ENCODING 200
SWIDTH 813 0
DWIDTH 41 0
BBX 39 46 1 -1
BITMAP
0000F00F00
0000783E00
00003C7C00
00001EF000
00000FE000
000007C000
0000000000
0000000000
00007FF800
0003FFFF00
000FFFFFC0
003FF03FE0
007F0007F0
00FC0001FC
01F0000078
03E0000030
07C0000010
0780000000
0F00000000
1E00000000
1E00000000
1C00000000
3C00000000
3C00000000
3800000000
7800000000
7800000000
7800000000
7800000000
7800000000
7800000000
7800000000
3800000000
3C00000000
3C00000000
3C00000000
1E00000000
1F00000000
0F80000000
07C0000180
07E0000780
03F8001FC0
00FF81FF00
007FFFFE00
001FFFF000
0003FFC000
ENDCHAR

STARTCHAR Eacute
ENCODING 201
SWIDTH 536 0
DWIDTH 27 0
BBX 27 46 0 0
BITMAP
00003E00
00003C00
00007800
0000F000
0001E000
0003C000
00078000
00000000
00000000
00000000
03FFFFC0
03FFFFC0
03FFFF80
03800000
07800000
07800000
07800000
07800000
07000000
07000000
07000000
0F000000
0F000000
0F000000
0F000000
0F000000
0FFFFF00
0FFFFE00
0FFFFE00
1E000000
1E000000
1E000000
1E000000
1E000000
1C000000
1C000000
1C000000
3C000000
3C000000
3C000000
3C000000
38000000
38000000
3FFFF800
7FFFF800
7FFFF800
ENDCHAR

STARTCHAR Eogonek
ENCODING 202
SWIDTH 536 0
DWIDTH 27 0
BBX 28 46 0 -10
BITMAP
03FFFFC0
03FFFFC0
03FFFFC0
03800000
03800000
07800000
07800000
07800000
07800000
07800000
07000000
07000000
07000000
0F000000
0F000000
0F000000
0FFFFF00
0FFFFF00
0FFFFF00
0E000000
1E000000
1E000000
1E000000
1E000000
1E000000
1C000000
1C000000
1C000000
3C000000
3C000000
3C000000
3C000000
38000000
3FFFFC00
3FFFF800
3FFFF800
00006000
0001C000
00018000
00030000
00070000
00070000
00070000
00078000
0003F800
0001F000
ENDCHAR

STARTCHAR Edieresis
ENCODING 203
SWIDTH 536 0
DWIDTH 27 0
BBX 28 44 0 0
BITMAP
001C0700
003E0F80
007E1F80
007E1F80
003C0F00
00100400
00000000
00000000
03FFFFC0
03FFFFC0
03FFFFC0
03C00000
03800000
03800000
03800000
07800000
07800000
07800000
07800000
07800000
07000000
07000000
07000000
0F000000
0FFFFF00
0FFFFF00
0FFFFF00
0E000000
0E000000
0E000000
1E000000
1E000000
1E000000
1E000000
1E000000
1C000000
1C000000
1C000000
3C000000
3C000000
3C000000
3FFFFC00
3FFFFC00
3FFFFC00
ENDCHAR

STARTCHAR Ecaron
ENCODING 204
SWIDTH 536 0
DWIDTH 27 0
BBX 27 45 0 0
BITMAP
00F00F00
00783E00
003C7C00
001EF000
000FE000
0007C000
00000000
00000000
00000000
03FFFFC0
03FFFFC0
03FFFF80
03800000
07800000
07800000
07800000
07800000
07000000
07000000
07000000
0F000000
0F000000
0F000000
0F000000
0F000000
0FFFFF00
0FFFFE00
0FFFFE00
1E000000
1E000000
1E000000
1E000000
1E000000
1C000000
1C000000
1C000000
3C000000
3C000000
3C000000
3C000000
38000000
38000000
3FFFF800
7FFFF800
7FFFF800
ENDCHAR

STARTCHAR Iacute
ENCODING 205
SWIDTH 226 0
DWIDTH 11 0
BBX 19 46 -1 0
BITMAP
001F00
003E00
003C00
007800
00F000
01E000
03C000
000000
000000
000000
01C000
01C000
01C000
03C000
03C000
03C000
03C000
038000
038000
038000
078000
078000
078000
078000
070000
070000
070000
0F0000
0F0000
0F0000
0F0000
0F0000
0E0000
0E0000
0E0000
1E0000
1E0000
1E0000
1E0000
1C0000
1C0000
1C0000
3C0000
3C0000
3C0000
3C0000
ENDCHAR

STARTCHAR Icircumflex
ENCODING 206
SWIDTH 226 0
DWIDTH 11 0
BBX 21 45 -3 0
BITMAP
003C00
00FE00
01FF00
03CF80
0F87C0
1F03E0
000000
000000
000000
007000
007000
007000
00F000
00F000
00F000
00F000
00E000
00E000
00E000
01E000
01E000
01E000
01E000
01C000
01C000
01C000
03C000
03C000
03C000
03C000
03C000
038000
038000
038000
078000
078000
078000
078000
070000
070000
070000
0F0000
0F0000
0F0000
0F0000
ENDCHAR

STARTCHAR Dcaron
ENCODING 207
SWIDTH 744 0
DWIDTH 37 0
BBX 36 45 -1 0
BITMAP
000F80F800
0007C1F000
0003E3C000
0001FF8000
0000FF0000
00007C0000
0000000000
0000000000
0000000000
01FFFC0000
03FFFF8000
03FFFFE000
03C01FF000
03C001FC00
0380007C00
0380003E00
0380001F00
0380000F00
0780000780
0780000780
07800003C0
07800003C0
07000003C0
07000001C0
07000001C0
0F000001C0
0F000001C0
0F000001C0
0F000001C0
0E000001C0
0E000003C0
0E000003C0
0E00000380
1E00000780
1E00000780
1E00000F00
1E00001F00
1C00003E00
1C00007C00
1C0000F800
1C0003F800
3C007FE000
3FFFFFC000
3FFFFF0000
3FFFF80000
ENDCHAR

STARTCHAR Dcroat
ENCODING 208
SWIDTH 790 0
DWIDTH 40 0
BBX 38 36 0 0
BITMAP
007FFF0000
00FFFFE000
00FFFFF800
00F007FC00
00F0007E00
00E0001F00
00E0000F80
00E00007C0
00E00003C0
01E00001E0
01E00001E0
01E00000E0
01E00000F0
01C00000F0
01C0000070
01C0000070
01C0000070
3FFFE00070
3FFFE00070
3FFFC00070
03C0000070
03800000F0
03800000F0
03800000E0
03800001E0
07800001E0
07800003C0
07800007C0
0700000780
0700000F00
0700003F00
070000FE00
0F000FF800
0FFFFFF000
0FFFFFC000
0FFFFE0000
ENDCHAR

STARTCHAR Nacute
ENCODING 209
SWIDTH 740 0
DWIDTH 37 0
BBX 36 46 0 0
BITMAP
000003E000
000007C000
00000F8000
00000F0000
00001E0000
00003C0000
0000780000
0000000000
0000000000
0000000000
02000001C0
03000001C0
03800001C0
03800003C0
07C00003C0
07E00003C0
07F00003C0
07F0000380
07F8000380
073C000380
073E000380
071E000780
0F0F000780
0F07800780
0F07800700
0F03C00700
0E01E00700
0E01F00700
0E00F00F00
1E00780F00
1E003C0F00
1E003E0E00
1E001E0E00
1C000F0E00
1C000F8E00
1C00079E00
1C0003DE00
3C0001FE00
3C0001FE00
3C0000FC00
3C00007C00
3800003C00
3800003C00
3800001C00
7800000C00
7800000C00
ENDCHAR

STARTCHAR Ncaron
ENCODING 210
SWIDTH 740 0
DWIDTH 37 0
BBX 36 45 0 0
BITMAP
000F00F800
000781F000
0003C3C000
0001EF8000
0000FF0000
00007C0000
0000000000
0000000000
0000000000
02000001C0
03000001C0
03800001C0
03800003C0
07C00003C0
07E00003C0
07F00003C0
07F0000380
07F8000380
073C000380
073E000380
071E000780
0F0F000780
0F07800780
0F07800700
0F03C00700
0E01E00700
0E01F00700
0E00F00F00
1E00780F00
1E003C0F00
1E003E0E00
1E001E0E00
1C000F0E00
1C000F8E00
1C00079E00
1C0003DE00
3C0001FE00
3C0001FE00
3C0000FC00
3C00007C00
3800003C00
3800003C00
3800001C00
7800000C00
7800000C00
ENDCHAR

STARTCHAR Oacute
ENCODING 211
SWIDTH 869 0
DWIDTH 43 0
BBX 41 47 0 -1
BITMAP
0000007C0000
000000780000
000000F00000
000001E00000
000003C00000
000007800000
00000F000000
000000000000
000000000000
00007FF00000
0003FFFE0000
000FFFFF0000
003FF03FC000
007F0007E000
00FC0001F000
01F00000F800
03E000007800
07C000003C00
078000003C00
0F0000001E00
1E0000001E00
1E0000000E00
1C0000000F00
3C0000000F00
3C0000000F00
380000000F00
380000000F00
780000000F00
780000000F00
780000000F00
780000000E00
780000001E00
780000001E00
780000001E00
380000003C00
3C0000007C00
3C0000007800
1E000000F800
1E000001F000
0F000003E000
0F800007C000
07C0001F8000
03F0007F0000
01FE07FE0000
00FFFFF80000
003FFFE00000
0007FF000000
ENDCHAR

STARTCHAR Ocircumflex
ENCODING 212
SWIDTH 869 0
DWIDTH 43 0
BBX 41 46 0 -1
BITMAP
000003C00000
00000FE00000
00001FF00000
00003C780000
0000F83C0000
0001F01E0000
000000000000
000000000000
00007FF00000
0003FFFE0000
000FFFFF0000
003FF03FC000
007F0007E000
00FC0001F000
01F00000F800
03E000007800
07C000003C00
078000003C00
0F0000001E00
1E0000001E00
1E0000000E00
1C0000000F00
3C0000000F00
3C0000000F00
380000000F00
380000000F00
780000000F00
780000000F00
780000000F00
780000000E00
780000001E00
780000001E00
780000001E00
380000003C00
3C0000007C00
3C0000007800
1E000000F800
1E000001F000
0F000003E000
0F800007C000
07C0001F8000
03F0007F0000
01FE07FE0000
00FFFFF80000
003FFFE00000
0007FF000000
ENDCHAR

STARTCHAR Ohungarumlaut
ENCODING 213
SWIDTH 869 0
DWIDTH 43 0
BBX 41 48 0 -1
BITMAP
000007C7C000
00000F8F8000
00001F1F0000
00003E3E0000
00003C7C0000
000078700000
0000F0E00000
0001E1C00000
000000000000
000000000000
00007FF00000
0003FFFE0000
000FFFFF0000
003FF03FC000
007F0007E000
00FC0001F000
01F00000F800
03E000007800
07C000003C00
078000003C00
0F0000001E00
1E0000001E00
1E0000000E00
1C0000000F00
3C0000000F00
3C0000000F00
380000000F00
380000000F00
780000000F00
780000000F00
780000000F00
780000000E00
780000001E00
780000001E00
780000001E00
380000003C00
3C0000007C00
3C0000007800
1E000000F800
1E000001F000
0F000003E000
0F800007C000
07C0001F8000
03F0007F0000
01FE07FE0000
00FFFFF80000
003FFFE00000
0007FF000000
ENDCHAR

STARTCHAR Odieresis
ENCODING 214
SWIDTH 869 0
DWIDTH 43 0
BBX 41 46 0 -1
BITMAP
0000380E0000
00007C1E0000
0000FC3F0000
0000FC3F0000
0000F83E0000
0000701C0000
000000000000
000000000000
00007FF00000
0003FFFE0000
000FFFFF8000
001FF03FC000
007F0007E000
00FC0001F000
01F00000F800
03E000007800
07C000003C00
078000003C00
0F0000001E00
1F0000001E00
1E0000000E00
1E0000000F00
3C0000000F00
3C0000000F00
380000000F00
380000000F00
780000000F00
780000000F00
780000000F00
780000000E00
780000001E00
780000001E00
780000001E00
3C0000003C00
3C0000003C00
3C0000007800
1E000000F800
1F000001F000
0F000003E000
0F800007C000
07E0000F8000
03F8007F0000
01FF03FE0000
007FFFF80000
001FFFE00000
0007FF000000
ENDCHAR

STARTCHAR multiply
ENCODING 215
SWIDTH 606 0
DWIDTH 30 0
BBX 24 20 3 8
BITMAP
180018
3C003C
3E007C
1F00F8
0F81F0
07C3E0
03E7C0
01FF80
00FF00
007E00
007E00
00FF00
01FF80
03E7C0
07C3E0
0F81F0
1F00F8
3E007C
3C003C
180018
ENDCHAR

STARTCHAR Rcaron
ENCODING 216
SWIDTH 607 0
DWIDTH 30 0
BBX 28 45 1 0
BITMAP
00F80F80
007C1F00
003E3C00
001FF800
000FF000
0007C000
00000000
00000000
00000000
03FFFC00
03FFFF00
03FFFF80
03801F80
038003C0
038003C0
078001E0
078001E0
078001E0
078001E0
070001E0
070001C0
070003C0
0F0007C0
0F000F80
0F007F00
0FFFFE00
0FFFFC00
0FFFF000
0E3C0000
0E1E0000
1E0F0000
1E0F0000
1E078000
1E03C000
1C03C000
1C01E000
1C00F000
3C00F000
3C007800
3C007800
3C003C00
38001E00
38001E00
38000F00
78000780
ENDCHAR

STARTCHAR Uring
ENCODING 217
SWIDTH 655 0
DWIDTH 33 0
BBX 31 49 1 -1
BITMAP
0001C000
0007F000
000C1800
00080C00
00180C00
00180C00
00080C00
000C1800
0007F000
0003E000
00000000
00000000
0F000038
0F000038
0F000078
0E000078
0E000078
0E000078
0E000070
0E000070
1E000070
1E000070
1E0000F0
1C0000F0
1C0000F0
1C0000E0
1C0000E0
1C0000E0
3C0000E0
3C0000E0
3C0001E0
380001E0
380001E0
380001C0
380001C0
780001C0
780003C0
780003C0
780003C0
78000780
78000780
78000F80
3C000F00
3C001F00
1E007E00
1FC1FC00
0FFFF800
07FFE000
01FF8000
ENDCHAR

STARTCHAR Uacute
ENCODING 218
SWIDTH 655 0
DWIDTH 33 0
BBX 31 47 1 -1
BITMAP
00000F80
00001F00
00001E00
00003C00
00007800
0000F000
0001E000
00000000
00000000
00000000
0F000038
0F000078
0F000078
0F000078
0E000078
0E000070
0E000070
0E000070
1E000070
1E0000F0
1E0000F0
1E0000F0
1C0000F0
1C0000E0
1C0000E0
1C0000E0
3C0000E0
3C0001E0
3C0001E0
380001E0
380001E0
380001C0
380001C0
780001C0
780003C0
780003C0
78000380
78000780
78000780
78000F00
3C000F00
3C001E00
1F003E00
1FC1FC00
0FFFF800
07FFE000
00FF8000
ENDCHAR

STARTCHAR Uhungarumlaut
ENCODING 219
SWIDTH 655 0
DWIDTH 33 0
BBX 31 47 1 -1
BITMAP
0000F9F0
0001F3E0
0003C3C0
00078780
000F0F00
001E1E00
003C3C00
00787800
00000000
00000000
0F000038
0F000078
0F000078
0F000078
0E000078
0E000070
0E000070
0E000070
1E000070
1E0000F0
1E0000F0
1E0000F0
1C0000F0
1C0000E0
1C0000E0
1C0000E0
3C0000E0
3C0001E0
3C0001E0
380001E0
380001E0
380001C0
380001C0
780001C0
780003C0
780003C0
78000380
78000780
78000780
78000F00
3C000F00
3C001E00
1F003E00
1FC1FC00
0FFFF800
07FFE000
00FF8000
ENDCHAR

STARTCHAR Udieresis
ENCODING 220
SWIDTH 655 0
DWIDTH 33 0
BBX 30 45 1 -1
BITMAP
000E0380
001F07C0
003F0FC0
003F0FC0
001E0780
00080200
00000000
00000000
0F000078
0F000078
0F000078
0F000070
0E000070
0E000070
0E000070
0E0000F0
1E0000F0
1E0000F0
1E0000F0
1C0000E0
1C0000E0
1C0000E0
1C0000E0
1C0001E0
3C0001E0
3C0001E0
3C0001C0
380001C0
380001C0
380001C0
380001C0
780003C0
780003C0
78000380
78000380
78000780
78000780
78000F00
3C000F00
3C001E00
1F007E00
1FC1FC00
0FFFF800
07FFE000
01FF8000
ENDCHAR

STARTCHAR Yacute
ENCODING 221
SWIDTH 592 0
DWIDTH 30 0
BBX 31 46 1 0
BITMAP
000007C0
00000F80
00001E00
00003C00
00007800
0000F000
0001E000
00000000
00000000
00000000
78000078
3C0000F8
3C0000F0
1E0001E0
1E0003C0
0E000780
0F000F80
07000F00
07801E00
03803C00
03C07800
03C0F800
01E0F000
01E1E000
00F3C000
00F7C000
007F8000
007F0000
003E0000
003C0000
003C0000
003C0000
003C0000
00380000
00380000
00380000
00380000
00780000
00780000
00780000
00700000
00700000
00700000
00700000
00F00000
00F00000
ENDCHAR

STARTCHAR Tcommaaccent
ENCODING 222
SWIDTH 426 0
DWIDTH 21 0
BBX 25 46 0 -10
BITMAP
3FFFFE00
3FFFFE00
3FFFFE00
003C0000
00380000
00380000
00380000
00380000
00780000
00780000
00780000
00780000
00700000
00700000
00700000
00F00000
00F00000
00F00000
00F00000
00F00000
00E00000
00E00000
00E00000
01E00000
01E00000
01E00000
01E00000
01C00000
01C00000
01C00000
01C00000
03C00000
03C00000
03C00000
03C00000
03800000
00000000
00000000
00000000
07800000
07800000
07800000
07800000
01000000
03000000
03000000
ENDCHAR

STARTCHAR germandbls
ENCODING 223
SWIDTH 554 0
DWIDTH 28 0
BBX 27 38 -1 -1
BITMAP
0007F800
001FFC00
003FFE00
007E1F00
00F80F80
01E00780
01E00380
03C00380
03C00380
03800380
03800780
07800700
07800F00
07001E00
07007C00
0707F800
0707F000
0707E000
0F0FF800
0F01FC00
0E003E00
0E001E00
0E000F00
0E000F00
0E000700
1E000700
1E000700
1C000700
1C000700
1C000F00
1C000F00
1C001E00
3C003E00
3C007C00
38E1F800
38FFF000
38FFE000
007F8000
ENDCHAR

STARTCHAR racute
ENCODING 224
SWIDTH 301 0
DWIDTH 15 0
BBX 22 40 -2 0
BITMAP
0001F0
0003E0
000780
000F00
001E00
003C00
007800
007000
000000
000000
000000
000000
000FC0
079FC0
077FC0
077880
07E000
07C000
078000
0F8000
0F0000
0F0000
0F0000
0E0000
0E0000
0E0000
1E0000
1E0000
1E0000
1C0000
1C0000
1C0000
1C0000
1C0000
3C0000
3C0000
380000
380000
380000
380000
ENDCHAR

STARTCHAR aacute
ENCODING 225
SWIDTH 683 0
DWIDTH 34 0
BBX 33 41 0 -1
BITMAP
000007C000
00000F8000
00001F0000
00001E0000
00003C0000
0000780000
0000F00000
0001E00000
0000000000
0000000000
0000000000
0000000000
0007F80000
001FFE0E00
007FFF8E00
00FC0F9E00
01F003DE00
03C000FE00
078000FE00
0F00007C00
0E00003C00
1E00003C00
1C00003C00
3C00003C00
3C00003C00
3800003C00
3800003800
3800003800
3800003800
3800003800
3C00007800
3C00007800
3C0000F800
1E0000F800
1E0001F000
0F0003F000
07C00FF000
07F03E7000
01FFFCF000
00FFF8F000
003FC00000
ENDCHAR

STARTCHAR acircumflex
ENCODING 226
SWIDTH 683 0
DWIDTH 34 0
BBX 33 40 0 -1
BITMAP
0000380000
0000FC0000
0001FE0000
0003DF0000
000F8F8000
001F07C000
003C01E000
0000000000
0000000000
0000000000
0000000000
0007F80000
001FFE0E00
007FFF8E00
00FC0F9E00
01F003DE00
03C000FE00
078000FE00
0F00007C00
0E00003C00
1E00003C00
1C00003C00
3C00003C00
3C00003C00
3800003C00
3800003800
3800003800
3800003800
3800003800
3C00007800
3C00007800
3C0000F800
1E0000F800
1E0001F000
0F0003F000
07C00FF000
07F03E7000
01FFFCF000
00FFF8F000
003FC00000
ENDCHAR

STARTCHAR abreve
ENCODING 227
SWIDTH 683 0
DWIDTH 34 0
BBX 33 38 0 -1
BITMAP
001C00E000
001F03E000
000FFFC000
0007FF0000
0000F80000
0000000000
0000000000
0000000000
0000000000
0007F80000
001FFE0E00
007FFF0E00
00FC0F9E00
01F003DE00
03C000FE00
078000FE00
0F00007C00
0E00003C00
1E00003C00
1C00003C00
1C00003C00
3C00003C00
3800003C00
3800003800
3800003800
3800003800
3800003800
3C00007800
3C00007800
3C0000F800
1E0000F800
1E0001F000
0F0003F000
07C00FF000
07F03E7000
01FFFCF000
00FFF8F000
003FC00000
ENDCHAR

STARTCHAR adieresis
ENCODING 228
SWIDTH 683 0
DWIDTH 34 0
BBX 33 39 -1 -1
BITMAP
000701C000
000F83E000
001F87E000
001F87E000
001F03C000
000E038000
0000000000
0000000000
0000000000
0000000000
0007F80000
001FFE0F00
007FFF8E00
00FC0FCE00
01F003EE00
03C000EE00
0780007E00
0F00007E00
0E00003E00
1E00003C00
1C00001C00
3C00001C00
3C00001C00
3800001C00
3800001C00
3800001C00
3800003C00
3800003800
3C00003800
3C00007800
3C00007800
1E0000F800
1E0001F800
0F0003F800
07C00FF000
07F03F7000
01FFFC7000
00FFF87000
003FC00000
ENDCHAR

STARTCHAR lacute
ENCODING 229
SWIDTH 200 0
DWIDTH 10 0
BBX 18 46 -1 0
BITMAP
003E00
007C00
00F800
00F000
01E000
03C000
078000
000000
000000
01C000
03C000
03C000
038000
038000
038000
038000
038000
078000
078000
070000
070000
070000
070000
070000
0F0000
0F0000
0E0000
0E0000
0E0000
0E0000
0E0000
1E0000
1E0000
1E0000
1C0000
1C0000
1C0000
1C0000
3C0000
3C0000
3C0000
380000
380000
380000
380000
780000
ENDCHAR

STARTCHAR cacute
ENCODING 230
SWIDTH 647 0
DWIDTH 32 0
BBX 31 41 0 -1
BITMAP
00000F80
00001F00
00003E00
00003C00
00007800
0000F000
0001E000
0003C000
00000000
00000000
00000000
00000000
0007FC00
001FFF80
007FFFC0
00FE0FF0
03F001F0
03C000F8
0780003C
0F000030
0E000000
1E000000
1C000000
3C000000
3C000000
38000000
38000000
38000000
38000000
38000000
3C000000
3C000000
3C000000
1E000040
1E0000E0
0F0001F0
07C007E0
07F03FC0
01FFFF80
00FFFE00
001FF000
ENDCHAR

STARTCHAR ccedilla
ENCODING 231
SWIDTH 647 0
DWIDTH 32 0
BBX 31 38 0 -10
BITMAP
0007FC00
001FFF80
007FFFC0
00FE0FE0
03F001F0
03C000F8
0780007C
0F000030
0E000000
1E000000
1C000000
3C000000
3C000000
38000000
38000000
38000000
38000000
38000000
3C000000
3C000000
3C000000
1E000040
1E0000E0
0F0001F0
0FC007E0
07F03FC0
03FFFF00
00FFFE00
001FF000
00060000
00060000
00078000
000FC000
0001C000
0001C000
00038000
00FF8000
007E0000
ENDCHAR

STARTCHAR ccaron
ENCODING 232
SWIDTH 647 0
DWIDTH 32 0
BBX 31 40 0 -1
BITMAP
003C01E0
001E07C0
001F0F80
000F9E00
0007FC00
0003F800
0001E000
00000000
00000000
00000000
00000000
0007FC00
001FFF80
007FFFC0
00FE0FF0
03F001F0
03C000F8
0780003C
0F000030
0E000000
1E000000
1C000000
3C000000
3C000000
38000000
38000000
38000000
38000000
38000000
3C000000
3C000000
3C000000
1E000040
1E0000E0
0F0001F0
07C007E0
07F03FC0
01FFFF80
00FFFE00
001FF000
ENDCHAR

STARTCHAR eacute
ENCODING 233
SWIDTH 650 0
DWIDTH 32 0
BBX 31 41 0 -1
BITMAP
00000F80
00001F00
00003E00
00007C00
00007800
0000F000
0001E000
00038000
00000000
00000000
00000000
00000000
0007FC00
003FFF00
007FFF80
00FE1FC0
03F003E0
03C001E0
078000F0
0F000070
0E000078
1E000078
1C000038
3C000038
3FFFFFF8
3FFFFFF8
3FFFFFF8
38000000
38000000
38000000
3C000000
3C000000
1C000000
1E000100
1E000180
0F0003C0
07C00F80
03F07F00
01FFFE00
00FFF800
001FC000
ENDCHAR

STARTCHAR eogonek
ENCODING 234
SWIDTH 650 0
DWIDTH 32 0
BBX 31 38 0 -10
BITMAP
0007F800
003FFF00
007FFF80
01FE1FC0
03F003E0
07C001E0
078000F0
0F000070
0E000078
1E000038
1C000038
3C000038
3FFFFFF8
3FFFFFF8
3FFFFFF8
38000000
38000000
38000000
3C000000
3C000000
1C000000
1E000100
1E000180
0F0007C0
07800F80
03F07F00
01FFFE00
00FFF800
003FE000
00070000
00060000
000C0000
001C0000
001C0000
001C0000
001E0000
000FE000
0007C000
ENDCHAR

STARTCHAR edieresis
ENCODING 235
SWIDTH 650 0
DWIDTH 32 0
BBX 31 39 -1 -1
BITMAP
000E0380
001F0780
003F0FC0
003F0FC0
003E0780
001C0700
00000000
00000000
00000000
00000000
0007FC00
001FFF00
007FFF80
00FE0FC0
01F003E0
03C001E0
078000F0
0F000070
0F000078
1E000038
1E000038
3C000038
3FFFFFF8
3FFFFFF8
3FFFFFF8
38000000
38000000
38000000
3C000000
3C000000
1C000000
1E000000
1F000180
0F0003C0
07C00F80
03F03F00
01FFFE00
00FFF800
001FE000
ENDCHAR

STARTCHAR ecaron
ENCODING 236
SWIDTH 650 0
DWIDTH 32 0
BBX 31 40 0 -1
BITMAP
007C01E0
003E07C0
001F0F00
000FBE00
0007FC00
0003F800
0001E000
00000000
00000000
00000000
00000000
0007FC00
003FFF00
007FFF80
00FE1FC0
03F003E0
03C001E0
078000F0
0F000070
0E000078
1E000078
1C000038
3C000038
3FFFFFF8
3FFFFFF8
3FFFFFF8
38000000
38000000
38000000
3C000000
3C000000
1C000000
1E000100
1E000180
0F0003C0
07C00F80
03F07F00
01FFFE00
00FFF800
001FC000
ENDCHAR

STARTCHAR iacute
ENCODING 237
SWIDTH 200 0
DWIDTH 10 0
BBX 16 40 -1 0
BITMAP
003E
007C
00F8
01F0
03E0
0780
0700
0E00
0000
0000
0000
0000
0000
0700
0700
0700
0700
0F00
0F00
0E00
0E00
0E00
0E00
0E00
0E00
1E00
1C00
1C00
1C00
1C00
1C00
1C00
3C00
3C00
3800
3800
3800
3800
3800
7800
ENDCHAR

STARTCHAR icircumflex
ENCODING 238
SWIDTH 200 0
DWIDTH 10 0
BBX 21 38 -5 0
BITMAP
007C00
00FE00
03FF00
07CF80
0F07C0
1E03E0
000000
000000
000000
000000
000000
007000
007000
007000
007000
00F000
00F000
00E000
00E000
00E000
00E000
00E000
00E000
01E000
01C000
01C000
01C000
01C000
01C000
01C000
03C000
03C000
038000
038000
038000
038000
038000
078000
ENDCHAR

STARTCHAR dcaron
ENCODING 239
SWIDTH 689 0
DWIDTH 34 0
BBX 40 38 0 -1
BITMAP
00000007BC
000000073C
000000073C
000000073C
000000073C
0000000F38
0000000F18
0000000F18
0000000F30
0007F80E30
001FFE0E20
007FFF8E00
00FC0FDE00
01F003DE00
03C000FE00
078000FE00
0F00007C00
0E00003C00
1E00003C00
1C00003C00
1C00003C00
3C00003C00
3800003C00
3800003C00
3800003800
3800003800
3800003800
3C00007800
3C00007800
3C0000F800
1E0000F800
1E0001F000
0F0003F000
07C00FF000
07F03E7000
01FFFCF000
00FFF8F000
003FC00000
ENDCHAR

STARTCHAR dcroat
ENCODING 240
SWIDTH 685 0
DWIDTH 34 0
BBX 37 38 0 -1
BITMAP
0000000780
0000000700
0000000700
00001FFFF0
00003FFFE0
00003FFFE0
0000000F00
0000000F00
0000000E00
0007F80E00
001FFE0E00
007FFF8E00
00FC0FDE00
01F003DE00
03C000FE00
078000FE00
0F00007C00
0E00003C00
1E00003C00
1C00003C00
1C00003C00
3C00003C00
3800003C00
3800003800
3800003800
3800003800
3800003800
3C00007800
3C00007800
3C0000F800
1E0000F800
1E0001F000
0F0003F000
07C00FF000
07F03E7000
01FFFCF000
00FFF8F000
003FC00000
ENDCHAR

STARTCHAR nacute
ENCODING 241
SWIDTH 610 0
DWIDTH 31 0
BBX 28 40 0 0
BITMAP
00003E00
00007C00
00007800
0000F000
0001E000
0003C000
00078000
000F0000
00000000
00000000
00000000
00000000
0003F800
071FFE00
073FFF00
077C1F80
07F00780
0FC003C0
0F8003C0
0F8001C0
0F0001C0
0F0001C0
0E0001C0
0E0001C0
1E0001C0
1E0001C0
1C0001C0
1C0003C0
1C0003C0
1C000380
1C000380
3C000380
3C000380
3C000380
38000780
38000780
38000700
38000700
38000700
78000700
ENDCHAR

STARTCHAR ncaron
ENCODING 242
SWIDTH 610 0
DWIDTH 31 0
BBX 28 38 0 0
BITMAP
00F81F00
007C3E00
003E7800
001FF000
000FE000
0007C000
00000000
00000000
00000000
00000000
0003F800
071FFE00
073FFF00
077C1F80
07F00780
0FC003C0
0F8003C0
0F8001C0
0F0001C0
0F0001C0
0E0001C0
0E0001C0
1E0001C0
1E0001C0
1C0001C0
1C0003C0
1C0003C0
1C000380
1C000380
3C000380
3C000380
3C000380
38000780
38000780
38000700
38000700
38000700
78000700
ENDCHAR

STARTCHAR oacute
ENCODING 243
SWIDTH 655 0
DWIDTH 33 0
BBX 31 41 0 -1
BITMAP
00000F80
00001F00
00003E00
00007C00
00007800
0000F000
0001C000
00038000
00000000
00000000
00000000
00000000
0007F800
003FFE00
007FFF80
01FC1FC0
03F003E0
07C001E0
078000F0
0F0000F0
0E000078
1E000078
1C000038
3C000038
3C000038
38000038
38000038
38000038
38000078
38000078
3C000070
3C0000F0
3C0000F0
1E0001E0
1E0003C0
0F0007C0
0FC00F80
07F07F00
03FFFE00
00FFF800
003FC000
ENDCHAR

STARTCHAR ocircumflex
ENCODING 244
SWIDTH 655 0
DWIDTH 33 0
BBX 31 40 0 -1
BITMAP
00007000
0001F800
0003FC00
0007BE00
001F1F00
003E0F80
007807C0
00000000
00000000
00000000
00000000
0007F800
003FFE00
007FFF80
01FC1FC0
03F003E0
07C001E0
078000F0
0F0000F0
0E000078
1E000078
1C000038
3C000038
3C000038
38000038
38000038
38000038
38000078
38000078
3C000070
3C0000F0
3C0000F0
1E0001E0
1E0003C0
0F0007C0
0FC00F80
07F07F00
03FFFE00
00FFF800
003FC000
ENDCHAR

STARTCHAR ohungarumlaut
ENCODING 245
SWIDTH 655 0
DWIDTH 33 0
BBX 31 41 0 -1
BITMAP
0000F8F8
0001F1F0
0003E3E0
0007C780
00078F00
000F1E00
001C1C00
00383800
00000000
00000000
00000000
00000000
0007F800
003FFE00
007FFF80
01FC1FC0
03F003E0
07C001E0
078000F0
0F0000F0
0E000078
1E000078
1C000038
3C000038
3C000038
38000038
38000038
38000038
38000078
38000078
3C000070
3C0000F0
3C0000F0
1E0001E0
1E0003C0
0F0007C0
0FC00F80
07F07F00
03FFFE00
00FFF800
003FC000
ENDCHAR

STARTCHAR odieresis
ENCODING 246
SWIDTH 655 0
DWIDTH 33 0
BBX 31 39 -1 -1
BITMAP
000E0380
001F0780
003F0FC0
003F0F80
003E0780
001C0300
00000000
00000000
00000000
00000000
0007F800
001FFE00
007FFF80
01FE0FC0
03F003E0
03C001E0
078000F0
0F000070
0E000078
1E000078
1C000038
3C000038
3C000038
38000038
38000038
38000038
38000038
38000078
3C000070
3C000070
3C0000F0
1E0001E0
1F0001E0
0F0003C0
07C00F80
07F03F00
01FFFE00
00FFF800
003FE000
ENDCHAR

STARTCHAR divide
ENCODING 247
SWIDTH 606 0
DWIDTH 30 0
BBX 27 23 2 6
BITMAP
001F0000
001F0000
001F0000
001F0000
001F0000
00000000
00000000
00000000
00000000
00000000
7FFFFFC0
7FFFFFC0
7FFFFFC0
00000000
00000000
00000000
00000000
00000000
001F0000
001F0000
001F0000
001F0000
001F0000
ENDCHAR

STARTCHAR rcaron
ENCODING 248
SWIDTH 301 0
DWIDTH 15 0
BBX 23 39 -2 0
BITMAP
0F007C
0780F0
03C3E0
01E7C0
00FF00
007E00
003C00
000000
000000
000000
000000
000FC0
079FC0
077FC0
077880
07E000
07C000
078000
0F8000
0F0000
0F0000
0F0000
0E0000
0E0000
0E0000
1E0000
1E0000
1E0000
1C0000
1C0000
1C0000
1C0000
1C0000
3C0000
3C0000
380000
380000
380000
380000
ENDCHAR

STARTCHAR uring
ENCODING 249
SWIDTH 608 0
DWIDTH 30 0
BBX 28 43 1 -1
BITMAP
00038000
000FE000
00183000
00101800
00301800
00301800
00301800
00181000
00183000
000FE000
00038000
00000000
00000000
00000000
00000000
0E0001E0
0E0001C0
0E0001C0
1E0001C0
1E0001C0
1C0001C0
1C0003C0
1C0003C0
1C0003C0
1C000380
1C000380
3C000380
3C000380
38000780
38000780
38000700
38000700
38000700
38000700
38000F00
3C000E00
3C001E00
1E003C00
1F007C00
0FC1F800
07FFF000
03FFC000
00FF0000
ENDCHAR

STARTCHAR uacute
ENCODING 250
SWIDTH 608 0
DWIDTH 30 0
BBX 28 41 1 -1
BITMAP
00001F00
00003E00
00007C00
00007800
0000F000
0001E000
0003C000
00078000
00000000
00000000
00000000
00000000
00000000
0E0001E0
0E0001C0
0E0001C0
1E0001C0
1E0001C0
1E0001C0
1C0003C0
1C0003C0
1C0003C0
1C000380
1C000380
3C000380
3C000380
3C000780
38000780
38000700
38000700
38000700
38000700
38000F00
3C000E00
1C001E00
1E003C00
1F007C00
0FC1F800
07FFF000
01FFE000
007F0000
ENDCHAR

STARTCHAR uhungarumlaut
ENCODING 251
SWIDTH 608 0
DWIDTH 30 0
BBX 29 41 1 -1
BITMAP
0001F3F0
0003E3C0
0007C780
000F8F00
001F1E00
001C3C00
00387800
00707000
00000000
00000000
00000000
00000000
00000000
0E0001E0
0E0001C0
0E0001C0
1E0001C0
1E0001C0
1E0001C0
1C0003C0
1C0003C0
1C0003C0
1C000380
1C000380
3C000380
3C000380
3C000780
38000780
38000700
38000700
38000700
38000700
38000F00
3C000E00
1C001E00
1E003C00
1F007C00
0FC1F800
07FFF000
01FFE000
007F0000
ENDCHAR

STARTCHAR udieresis
ENCODING 252
SWIDTH 608 0
DWIDTH 30 0
BBX 28 39 1 -1
BITMAP
00380E00
007C1F00
007C3F00
00FC3F00
00783E00
00701C00
00000000
00000000
00000000
00000000
00000000
0E0001C0
0E0001C0
0E0001C0
1E0003C0
1E0003C0
1C000380
1C000380
1C000380
1C000380
1C000380
1C000780
3C000780
3C000780
38000700
38000700
38000700
38000700
38000F00
38000F00
38000E00
3C000E00
3C001E00
1E003C00
1F007800
0FC1F800
07FFF000
03FFC000
00FF0000
ENDCHAR

STARTCHAR yacute
ENCODING 253
SWIDTH 536 0
DWIDTH 27 0
BBX 28 50 0 -10
BITMAP
00001F00
00003E00
00007C00
0000F800
0001F000
0001E000
00038000
00070000
00000000
00000000
00000000
00000000
00000000
780001C0
380003C0
3C000380
3C000780
1C000F00
1E000F00
1E001E00
0E001C00
0F003C00
0F003800
07007800
0780F000
0780F000
0381E000
03C1C000
01C3C000
01C38000
01E78000
00EF0000
00EF0000
00FE0000
007E0000
007C0000
00780000
00780000
00F00000
00F00000
01E00000
01E00000
03C00000
03800000
07800000
0F000000
0F000000
1E000000
1E000000
3C000000
ENDCHAR

STARTCHAR tcommaaccent
ENCODING 254
SWIDTH 339 0
DWIDTH 17 0
BBX 17 47 1 -10
BITMAP
00E000
00E000
00E000
01E000
01E000
01C000
01C000
01C000
01C000
01C000
3FFE00
3FFE00
3FFE00
038000
038000
038000
038000
038000
078000
078000
078000
070000
070000
070000
070000
0F0000
0F0000
0F0000
0E0000
0E0000
0E0000
0E0000
0E0000
1E0000
1E0000
1E0000
1C0000
000000
000000
000000
3C0000
3C0000
3C0000
3C0000
080000
180000
180000
ENDCHAR

STARTCHAR dotaccent
ENCODING 255
SWIDTH 222 0
DWIDTH 11 0
BBX 8 6 4 31
BITMAP
1C
3E
7E
7E
3C
18
ENDCHAR
ENDFONT
